<svg xmlns="http://www.w3.org/2000/svg" xmlns:xlink="http://www.w3.org/1999/xlink" contentStyleType="text/css" data-diagram-type="SEQUENCE" height="182px" preserveAspectRatio="none" style="width:201px;height:182px;background:#FFFFFF;" version="1.1" viewBox="0 0 201 182" width="201px" zoomAndPan="magnify"><defs/><g><g><title>Citizen</title><rect fill="#000000" fill-opacity="0.00000" height="20" width="8" x="27.7651" y="81.4883"/><line style="stroke:#181818;stroke-width:0.5;stroke-dasharray:5,5;" x1="31" x2="31" y1="81.4883" y2="101.4883"/></g><g><title>MunicipalOperator</title><rect fill="#000000" fill-opacity="0.00000" height="20" width="8" x="130.4312" y="81.4883"/><line style="stroke:#181818;stroke-width:0.5;stroke-dasharray:5,5;" x1="133.5303" x2="133.5303" y1="81.4883" y2="101.4883"/></g><g class="participant participant-head" data-participant="E1"><text fill="#000000" font-family="sans-serif" font-size="14" lengthAdjust="spacing" textLength="47.5303" x="5" y="78.5352">Citizen</text><ellipse cx="31.7651" cy="13.5" fill="#E2E2F0" rx="8" ry="8" style="stroke:#181818;stroke-width:0.5;"/><path d="M31.7651,21.5 L31.7651,48.5 M18.7651,29.5 L44.7651,29.5 M31.7651,48.5 L18.7651,63.5 M31.7651,48.5 L44.7651,63.5" fill="none" style="stroke:#181818;stroke-width:0.5;"/></g><g class="participant participant-tail" data-participant="E1"><text fill="#000000" font-family="sans-serif" font-size="14" lengthAdjust="spacing" textLength="47.5303" x="5" y="114.0234">Citizen</text><ellipse cx="31.7651" cy="125.4766" fill="#E2E2F0" rx="8" ry="8" style="stroke:#181818;stroke-width:0.5;"/><path d="M31.7651,133.4766 L31.7651,160.4766 M18.7651,141.4766 L44.7651,141.4766 M31.7651,160.4766 L18.7651,175.4766 M31.7651,160.4766 L44.7651,175.4766" fill="none" style="stroke:#181818;stroke-width:0.5;"/></g><g class="participant participant-head" data-participant="E2"><text fill="#000000" font-family="sans-serif" font-size="14" lengthAdjust="spacing" textLength="125.8018" x="68.5303" y="78.5352">MunicipalOperator</text><ellipse cx="134.4312" cy="13.5" fill="#E2E2F0" rx="8" ry="8" style="stroke:#181818;stroke-width:0.5;"/><path d="M134.4312,21.5 L134.4312,48.5 M121.4312,29.5 L147.4312,29.5 M134.4312,48.5 L121.4312,63.5 M134.4312,48.5 L147.4312,63.5" fill="none" style="stroke:#181818;stroke-width:0.5;"/></g><g class="participant participant-tail" data-participant="E2"><text fill="#000000" font-family="sans-serif" font-size="14" lengthAdjust="spacing" textLength="125.8018" x="68.5303" y="114.0234">MunicipalOperator</text><ellipse cx="134.4312" cy="125.4766" fill="#E2E2F0" rx="8" ry="8" style="stroke:#181818;stroke-width:0.5;"/><path d="M134.4312,133.4766 L134.4312,160.4766 M121.4312,141.4766 L147.4312,141.4766 M134.4312,160.4766 L121.4312,175.4766 M134.4312,160.4766 L147.4312,175.4766" fill="none" style="stroke:#181818;stroke-width:0.5;"/></g><!--SRC=[IqmkoIzIK7BEBCciIirJKaWiLd0rv4g4YFgMvcKcPnOavlWNf1Ob0eKWyaO0]--></g></svg>