<svg xmlns="http://www.w3.org/2000/svg" xmlns:xlink="http://www.w3.org/1999/xlink" contentStyleType="text/css" data-diagram-type="DESCRIPTION" height="397px" preserveAspectRatio="none" style="width:526px;height:397px;background:#FFFFFF;" version="1.1" viewBox="0 0 526 397" width="526px" zoomAndPan="magnify"><defs/><g><!--entity E1--><g class="entity" data-entity="E1" data-source-line="1" data-uid="ent0002" id="entity_E1"><rect fill="#F1F1F1" height="46.4883" rx="2.5" ry="2.5" style="stroke:#181818;stroke-width:0.5;" width="102.0088" x="114.14" y="7"/><rect fill="#F1F1F1" height="10" style="stroke:#181818;stroke-width:0.5;" width="15" x="196.1488" y="12"/><rect fill="#F1F1F1" height="2" style="stroke:#181818;stroke-width:0.5;" width="4" x="194.1488" y="14"/><rect fill="#F1F1F1" height="2" style="stroke:#181818;stroke-width:0.5;" width="4" x="194.1488" y="18"/><text fill="#000000" font-family="sans-serif" font-size="14" lengthAdjust="spacing" textLength="62.0088" x="129.14" y="40.5352">Assigned</text></g><!--entity E2--><g class="entity" data-entity="E2" data-source-line="2" data-uid="ent0003" id="entity_E2"><rect fill="#F1F1F1" height="46.4883" rx="2.5" ry="2.5" style="stroke:#181818;stroke-width:0.5;" width="87.5303" x="343.38" y="221.97"/><rect fill="#F1F1F1" height="10" style="stroke:#181818;stroke-width:0.5;" width="15" x="410.9103" y="226.97"/><rect fill="#F1F1F1" height="2" style="stroke:#181818;stroke-width:0.5;" width="4" x="408.9103" y="228.97"/><rect fill="#F1F1F1" height="2" style="stroke:#181818;stroke-width:0.5;" width="4" x="408.9103" y="232.97"/><text fill="#000000" font-family="sans-serif" font-size="14" lengthAdjust="spacing" textLength="47.5303" x="358.38" y="255.5052">Citizen</text></g><!--entity E5--><g class="entity" data-entity="E5" data-source-line="3" data-uid="ent0004" id="entity_E5"><rect fill="#F1F1F1" height="46.4883" rx="2.5" ry="2.5" style="stroke:#181818;stroke-width:0.5;" width="165.8018" x="142.25" y="221.97"/><rect fill="#F1F1F1" height="10" style="stroke:#181818;stroke-width:0.5;" width="15" x="288.0518" y="226.97"/><rect fill="#F1F1F1" height="2" style="stroke:#181818;stroke-width:0.5;" width="4" x="286.0518" y="228.97"/><rect fill="#F1F1F1" height="2" style="stroke:#181818;stroke-width:0.5;" width="4" x="286.0518" y="232.97"/><text fill="#000000" font-family="sans-serif" font-size="14" lengthAdjust="spacing" textLength="125.8018" x="157.25" y="255.5052">MunicipalOperator</text></g><!--entity E7--><g class="entity" data-entity="E7" data-source-line="4" data-uid="ent0005" id="entity_E7"><rect fill="#F1F1F1" height="46.4883" rx="2.5" ry="2.5" style="stroke:#181818;stroke-width:0.5;" width="85.0283" x="122.63" y="114.49"/><rect fill="#F1F1F1" height="10" style="stroke:#181818;stroke-width:0.5;" width="15" x="187.6583" y="119.49"/><rect fill="#F1F1F1" height="2" style="stroke:#181818;stroke-width:0.5;" width="4" x="185.6583" y="121.49"/><rect fill="#F1F1F1" height="2" style="stroke:#181818;stroke-width:0.5;" width="4" x="185.6583" y="125.49"/><text fill="#000000" font-family="sans-serif" font-size="14" lengthAdjust="spacing" textLength="45.0283" x="137.63" y="148.0252">Report</text></g><!--entity E9--><g class="entity" data-entity="E9" data-source-line="5" data-uid="ent0006" id="entity_E9"><rect fill="#F1F1F1" height="46.4883" rx="2.5" ry="2.5" style="stroke:#181818;stroke-width:0.5;" width="100.293" x="7" y="221.97"/><rect fill="#F1F1F1" height="10" style="stroke:#181818;stroke-width:0.5;" width="15" x="87.293" y="226.97"/><rect fill="#F1F1F1" height="2" style="stroke:#181818;stroke-width:0.5;" width="4" x="85.293" y="228.97"/><rect fill="#F1F1F1" height="2" style="stroke:#181818;stroke-width:0.5;" width="4" x="85.293" y="232.97"/><text fill="#000000" font-family="sans-serif" font-size="14" lengthAdjust="spacing" textLength="60.293" x="22" y="255.5052">Resolved</text></g><!--entity E10--><g class="entity" data-entity="E10" data-source-line="6" data-uid="ent0007" id="entity_E10"><rect fill="#F1F1F1" height="46.4883" rx="2.5" ry="2.5" style="stroke:#181818;stroke-width:0.5;" width="70.3652" x="410.96" y="345.46"/><rect fill="#F1F1F1" height="10" style="stroke:#181818;stroke-width:0.5;" width="15" x="461.3252" y="350.46"/><rect fill="#F1F1F1" height="2" style="stroke:#181818;stroke-width:0.5;" width="4" x="459.3252" y="352.46"/><rect fill="#F1F1F1" height="2" style="stroke:#181818;stroke-width:0.5;" width="4" x="459.3252" y="356.46"/><text fill="#000000" font-family="sans-serif" font-size="14" lengthAdjust="spacing" textLength="30.3652" x="425.96" y="378.9952">User</text></g><!--entity E11--><g class="entity" data-entity="E11" data-source-line="7" data-uid="ent0008" id="entity_E11"><rect fill="#F1F1F1" height="46.4883" rx="2.5" ry="2.5" style="stroke:#181818;stroke-width:0.5;" width="167.9414" x="330.18" y="7"/><rect fill="#F1F1F1" height="10" style="stroke:#181818;stroke-width:0.5;" width="15" x="478.1214" y="12"/><rect fill="#F1F1F1" height="2" style="stroke:#181818;stroke-width:0.5;" width="4" x="476.1214" y="14"/><rect fill="#F1F1F1" height="2" style="stroke:#181818;stroke-width:0.5;" width="4" x="476.1214" y="18"/><text fill="#000000" font-family="sans-serif" font-size="14" lengthAdjust="spacing" textLength="127.9414" x="345.18" y="40.5352">UserDashboardGUI</text></g><!--entity E16--><g class="entity" data-entity="E16" data-source-line="8" data-uid="ent0009" id="entity_E16"><rect fill="#F1F1F1" height="46.4883" rx="2.5" ry="2.5" style="stroke:#181818;stroke-width:0.5;" width="117.6973" x="322.3" y="114.49"/><rect fill="#F1F1F1" height="10" style="stroke:#181818;stroke-width:0.5;" width="15" x="419.9973" y="119.49"/><rect fill="#F1F1F1" height="2" style="stroke:#181818;stroke-width:0.5;" width="4" x="417.9973" y="121.49"/><rect fill="#F1F1F1" height="2" style="stroke:#181818;stroke-width:0.5;" width="4" x="417.9973" y="125.49"/><text fill="#000000" font-family="sans-serif" font-size="14" lengthAdjust="spacing" textLength="77.6973" x="337.3" y="148.0252">UserService</text></g><!--link E2 to E10--><g class="link" data-entity-1="E2" data-entity-2="E10" data-source-line="9" data-uid="lnk10" id="link_E2_E10"><path d="M391.05,268.84 C394.01,282.77 398.83,300.72 406.15,315.46 C411.33,325.9 414.9747,331.6305 422.0047,340.3905" fill="none" id="E2-to-E10" style="stroke:#181818;stroke-width:1;"/><polygon fill="#181818" points="425.76,345.07,423.2467,335.5472,422.6306,341.1704,417.0074,340.5543,425.76,345.07" style="stroke:#181818;stroke-width:1;"/><text fill="#000000" font-family="sans-serif" font-size="13" lengthAdjust="spacing" textLength="50.1973" x="407.15" y="312.0284">extends</text></g><!--link E5 to E10--><g class="link" data-entity-1="E5" data-entity-2="E10" data-source-line="10" data-uid="lnk11" id="link_E5_E10"><path d="M260.59,268.9 C282.85,282.85 312.32,300.81 339.15,315.46 C362.55,328.25 384.1144,338.8483 405.1244,348.7683" fill="none" id="E5-to-E10" style="stroke:#181818;stroke-width:1;"/><polygon fill="#181818" points="410.55,351.33,404.1194,343.8703,406.0286,349.1952,400.7037,351.1045,410.55,351.33" style="stroke:#181818;stroke-width:1;"/><text fill="#000000" font-family="sans-serif" font-size="13" lengthAdjust="spacing" textLength="50.1973" x="340.15" y="312.0284">extends</text></g><!--link E1 to E7--><g class="link" data-entity-1="E1" data-entity-2="E7" data-source-line="11" data-uid="lnk12" id="link_E1_E7"><path d="M154.15,53.87 C151.31,71.67 150.3641,90.425 153.2041,108.215" fill="none" id="E1-to-E7" style="stroke:#181818;stroke-width:1;"/><polygon fill="#181818" points="154.15,114.14,156.6812,104.622,153.3618,109.2025,148.7812,105.8831,154.15,114.14" style="stroke:#181818;stroke-width:1;"/></g><!--link E7 to E1--><g class="link" data-entity-1="E7" data-entity-2="E1" data-source-line="12" data-uid="lnk13" id="link_E7_E1"><path d="M176.14,114.14 C178.98,96.35 179.9221,77.5956 177.0921,59.7956" fill="none" id="E7-to-E1" style="stroke:#181818;stroke-width:1;"/><polygon fill="#181818" points="176.15,53.87,173.6128,63.3864,176.9351,58.808,181.5135,62.1303,176.15,53.87" style="stroke:#181818;stroke-width:1;"/></g><!--link E7 to E2--><g class="link" data-entity-1="E7" data-entity-2="E2" data-source-line="13" data-uid="lnk14" id="link_E7_E2"><path d="M207.95,159.07 C246.76,177.51 298.3006,202.005 337.5306,220.645" fill="none" id="E7-to-E2" style="stroke:#181818;stroke-width:1;"/><polygon fill="#181818" points="342.95,223.22,336.5376,215.7446,338.4339,221.0742,333.1043,222.9704,342.95,223.22" style="stroke:#181818;stroke-width:1;"/></g><!--link E7 to E5--><g class="link" data-entity-1="E7" data-entity-2="E5" data-source-line="14" data-uid="lnk15" id="link_E7_E5"><path d="M178.02,161.36 C188.14,179.16 199.2133,198.6248 209.3333,216.4148" fill="none" id="E7-to-E5" style="stroke:#181818;stroke-width:1;"/><polygon fill="#181818" points="212.3,221.63,211.3267,211.8294,209.8277,217.284,204.3731,215.785,212.3,221.63" style="stroke:#181818;stroke-width:1;"/></g><!--link E7 to E9--><g class="link" data-entity-1="E7" data-entity-2="E9" data-source-line="15" data-uid="lnk16" id="link_E7_E9"><path d="M130.98,161.36 C109.92,179.16 88.584,199.3011 73.204,217.0911" fill="none" id="E7-to-E9" style="stroke:#181818;stroke-width:1;"/><polygon fill="#181818" points="69.28,221.63,78.192,217.4376,72.55,217.8476,72.1401,212.2056,69.28,221.63" style="stroke:#181818;stroke-width:1;"/></g><!--link E9 to E7--><g class="link" data-entity-1="E9" data-entity-2="E7" data-source-line="16" data-uid="lnk17" id="link_E9_E7"><path d="M91.27,221.63 C112.32,203.84 133.6658,183.6988 149.0558,165.8988" fill="none" id="E9-to-E7" style="stroke:#181818;stroke-width:1;"/><polygon fill="#181818" points="152.98,161.36,144.0678,165.552,149.7098,165.1423,150.1195,170.7843,152.98,161.36" style="stroke:#181818;stroke-width:1;"/></g><!--link E11 to E2--><g class="link" data-entity-1="E11" data-entity-2="E2" data-source-line="17" data-uid="lnk18" id="link_E11_E2"><path d="M431.05,53.88 C448.28,79.88 470.72,123.74 457.15,160.97 C448.48,184.75 434.0401,202.2866 418.1101,217.5666" fill="none" id="E11-to-E2" style="stroke:#181818;stroke-width:1;"/><polygon fill="#181818" points="413.78,221.72,423.044,218.3766,417.3884,218.2589,417.5062,212.6032,413.78,221.72" style="stroke:#181818;stroke-width:1;"/></g><!--link E11 to E5--><g class="link" data-entity-1="E11" data-entity-2="E5" data-source-line="18" data-uid="lnk19" id="link_E11_E5"><path d="M378.06,53.82 C355.42,69.13 326.56,90.83 305.15,114.49 C274.78,148.03 251.9662,189.2799 238.3862,216.5299" fill="none" id="E11-to-E5" style="stroke:#181818;stroke-width:1;"/><polygon fill="#181818" points="235.71,221.9,243.3043,215.629,237.9402,217.4249,236.1442,212.0607,235.71,221.9" style="stroke:#181818;stroke-width:1;"/></g><!--link E11 to E7--><g class="link" data-entity-1="E11" data-entity-2="E7" data-source-line="19" data-uid="lnk20" id="link_E11_E7"><path d="M329.83,52.13 C302.2,60.32 271.78,70.83 245.15,83.49 C227.52,91.86 214.1774,100.2195 199.5874,110.6095" fill="none" id="E11-to-E7" style="stroke:#181818;stroke-width:1;"/><polygon fill="#181818" points="194.7,114.09,204.3514,112.1276,198.7728,111.1896,199.7108,105.6111,194.7,114.09" style="stroke:#181818;stroke-width:1;"/></g><!--link E11 to E10--><g class="link" data-entity-1="E11" data-entity-2="E10" data-source-line="20" data-uid="lnk21" id="link_E11_E10"><path d="M446.11,53.85 C456.17,62.23 466.61,72.41 474.15,83.49 C482.37,95.57 482.51,100.11 485.15,114.49 C501.26,202.36 519.3,231.36 489.15,315.46 C485.22,326.41 481.8671,332.1987 474.3671,340.7087" fill="none" id="E11-to-E10" style="stroke:#181818;stroke-width:1;"/><polygon fill="#181818" points="470.4,345.21,479.3516,341.1027,473.7059,341.4589,473.3498,335.8133,470.4,345.21" style="stroke:#181818;stroke-width:1;"/></g><!--link E16 to E2--><g class="link" data-entity-1="E16" data-entity-2="E2" data-source-line="21" data-uid="lnk22" id="link_E16_E2"><path d="M382.43,161.36 C383.45,179.16 384.5099,197.8496 385.5199,215.6396" fill="none" id="E16-to-E2" style="stroke:#181818;stroke-width:1;"/><polygon fill="#181818" points="385.86,221.63,389.3434,212.4177,385.5766,216.638,381.3563,212.8712,385.86,221.63" style="stroke:#181818;stroke-width:1;"/></g><!--link E16 to E5--><g class="link" data-entity-1="E16" data-entity-2="E5" data-source-line="22" data-uid="lnk23" id="link_E16_E5"><path d="M347.68,161.36 C321.36,179.16 289.8298,200.4783 263.5298,218.2683" fill="none" id="E16-to-E5" style="stroke:#181818;stroke-width:1;"/><polygon fill="#181818" points="258.56,221.63,268.2558,219.9006,262.7015,218.8286,263.7736,213.2742,258.56,221.63" style="stroke:#181818;stroke-width:1;"/></g><!--link E16 to E10--><g class="link" data-entity-1="E16" data-entity-2="E10" data-source-line="23" data-uid="lnk24" id="link_E16_E10"><path d="M404.59,161.33 C419.39,176.97 437.64,199.03 448.15,221.97 C465.64,260.17 468.37,273.91 462.15,315.46 C460.66,325.41 459.5404,330.3723 456.5404,339.4623" fill="none" id="E16-to-E10" style="stroke:#181818;stroke-width:1;"/><polygon fill="#181818" points="454.66,345.16,461.2791,337.867,456.227,340.4119,453.6822,335.3598,454.66,345.16" style="stroke:#181818;stroke-width:1;"/></g><!--SRC=[RO-z2i8m4CVtUugyGC4Kqb87GJI8WmXAf-0GsqC39Ib9BEBJsv8qTN3xV_pkk1DRvzH3OtiZqX5EGUoKLn_KmUSWJY-j6jNBxjoZbTxOq30G5-oDzS6MatMc6-PD5OZQOOJfAhYzTC-xaROzrCVOqD1SqGwgmHWMm7EIPPjfagm9lZtgrW5d_q8QmX9u6UkaygHOKXNmAarGci1PiaN-0EC7uraBN2nmCHDV]--></g></svg>