<svg xmlns="http://www.w3.org/2000/svg" xmlns:xlink="http://www.w3.org/1999/xlink" contentStyleType="text/css" data-diagram-type="DESCRIPTION" height="359px" preserveAspectRatio="none" style="width:1224px;height:359px;background:#FFFFFF;" version="1.1" viewBox="0 0 1224 359" width="1224px" zoomAndPan="magnify"><defs/><g><!--cluster Database Layer--><g class="cluster" data-entity="Database Layer" data-source-line="1" data-uid="ent0002" id="cluster_Database Layer"><path d="M948.5,6 L1060.0781,6 A3.75,3.75 0 0 1 1062.5781,8.5 L1069.5781,28.4883 L1214.5,28.4883 A2.5,2.5 0 0 1 1217,30.9883 L1217,100.98 A2.5,2.5 0 0 1 1214.5,103.48 L948.5,103.48 A2.5,2.5 0 0 1 946,100.98 L946,8.5 A2.5,2.5 0 0 1 948.5,6" fill="none" style="stroke:#000000;stroke-width:1.5;"/><line style="stroke:#000000;stroke-width:1.5;" x1="946" x2="1069.5781" y1="28.4883" y2="28.4883"/><text fill="#000000" font-family="sans-serif" font-size="14" font-weight="bold" lengthAdjust="spacing" textLength="110.5781" x="950" y="21.5352">Database Layer</text></g><!--cluster Business Logic and Entities--><g class="cluster" data-entity="Business Logic and Entities" data-source-line="5" data-uid="ent0005" id="cluster_Business Logic and Entities"><path d="M8.5,6 L206.252,6 A3.75,3.75 0 0 1 208.752,8.5 L215.752,28.4883 L919.5,28.4883 A2.5,2.5 0 0 1 922,30.9883 L922,349.96 A2.5,2.5 0 0 1 919.5,352.46 L8.5,352.46 A2.5,2.5 0 0 1 6,349.96 L6,8.5 A2.5,2.5 0 0 1 8.5,6" fill="none" style="stroke:#000000;stroke-width:1.5;"/><line style="stroke:#000000;stroke-width:1.5;" x1="6" x2="215.752" y1="28.4883" y2="28.4883"/><text fill="#000000" font-family="sans-serif" font-size="14" font-weight="bold" lengthAdjust="spacing" textLength="196.752" x="10" y="21.5352">Business Logic and Entities</text></g><!--entity E1--><g class="entity" data-entity="E1" data-source-line="2" data-uid="ent0003" id="entity_E1"><rect fill="#F1F1F1" height="46.4883" rx="2.5" ry="2.5" style="stroke:#181818;stroke-width:0.5;" width="87.5303" x="962.23" y="41"/><rect fill="#F1F1F1" height="10" style="stroke:#181818;stroke-width:0.5;" width="15" x="1029.7603" y="46"/><rect fill="#F1F1F1" height="2" style="stroke:#181818;stroke-width:0.5;" width="4" x="1027.7603" y="48"/><rect fill="#F1F1F1" height="2" style="stroke:#181818;stroke-width:0.5;" width="4" x="1027.7603" y="52"/><text fill="#000000" font-family="sans-serif" font-size="14" lengthAdjust="spacing" textLength="47.5303" x="977.23" y="74.5352">Citizen</text></g><!--entity E2--><g class="entity" data-entity="E2" data-source-line="3" data-uid="ent0004" id="entity_E2"><rect fill="#F1F1F1" height="46.4883" rx="2.5" ry="2.5" style="stroke:#181818;stroke-width:0.5;" width="116.7129" x="1084.64" y="41"/><rect fill="#F1F1F1" height="10" style="stroke:#181818;stroke-width:0.5;" width="15" x="1181.3529" y="46"/><rect fill="#F1F1F1" height="2" style="stroke:#181818;stroke-width:0.5;" width="4" x="1179.3529" y="48"/><rect fill="#F1F1F1" height="2" style="stroke:#181818;stroke-width:0.5;" width="4" x="1179.3529" y="52"/><text fill="#000000" font-family="sans-serif" font-size="14" lengthAdjust="spacing" textLength="76.7129" x="1099.64" y="74.5352">Credentials</text></g><!--entity E3--><g class="entity" data-entity="E3" data-source-line="6" data-uid="ent0006" id="entity_E3"><rect fill="#F1F1F1" height="46.4883" rx="2.5" ry="2.5" style="stroke:#181818;stroke-width:0.5;" width="123.9316" x="22.03" y="41"/><rect fill="#F1F1F1" height="10" style="stroke:#181818;stroke-width:0.5;" width="15" x="125.9616" y="46"/><rect fill="#F1F1F1" height="2" style="stroke:#181818;stroke-width:0.5;" width="4" x="123.9616" y="48"/><rect fill="#F1F1F1" height="2" style="stroke:#181818;stroke-width:0.5;" width="4" x="123.9616" y="52"/><text fill="#000000" font-family="sans-serif" font-size="14" lengthAdjust="spacing" textLength="83.9316" x="37.03" y="74.5352">InternalNote</text></g><!--entity E4--><g class="entity" data-entity="E4" data-source-line="7" data-uid="ent0007" id="entity_E4"><rect fill="#F1F1F1" height="46.4883" rx="2.5" ry="2.5" style="stroke:#181818;stroke-width:0.5;" width="97.5381" x="181.23" y="41"/><rect fill="#F1F1F1" height="10" style="stroke:#181818;stroke-width:0.5;" width="15" x="258.7681" y="46"/><rect fill="#F1F1F1" height="2" style="stroke:#181818;stroke-width:0.5;" width="4" x="256.7681" y="48"/><rect fill="#F1F1F1" height="2" style="stroke:#181818;stroke-width:0.5;" width="4" x="256.7681" y="52"/><text fill="#000000" font-family="sans-serif" font-size="14" lengthAdjust="spacing" textLength="57.5381" x="196.23" y="74.5352">Location</text></g><!--entity E5--><g class="entity" data-entity="E5" data-source-line="8" data-uid="ent0008" id="entity_E5"><rect fill="#F1F1F1" height="46.4883" rx="2.5" ry="2.5" style="stroke:#181818;stroke-width:0.5;" width="165.8018" x="314.1" y="41"/><rect fill="#F1F1F1" height="10" style="stroke:#181818;stroke-width:0.5;" width="15" x="459.9018" y="46"/><rect fill="#F1F1F1" height="2" style="stroke:#181818;stroke-width:0.5;" width="4" x="457.9018" y="48"/><rect fill="#F1F1F1" height="2" style="stroke:#181818;stroke-width:0.5;" width="4" x="457.9018" y="52"/><text fill="#000000" font-family="sans-serif" font-size="14" lengthAdjust="spacing" textLength="125.8018" x="329.1" y="74.5352">MunicipalOperator</text></g><!--entity E6--><g class="entity" data-entity="E6" data-source-line="9" data-uid="ent0009" id="entity_E6"><rect fill="#F1F1F1" height="46.4883" rx="2.5" ry="2.5" style="stroke:#181818;stroke-width:0.5;" width="118.8936" x="21.55" y="166.48"/><rect fill="#F1F1F1" height="10" style="stroke:#181818;stroke-width:0.5;" width="15" x="120.4436" y="171.48"/><rect fill="#F1F1F1" height="2" style="stroke:#181818;stroke-width:0.5;" width="4" x="118.4436" y="173.48"/><rect fill="#F1F1F1" height="2" style="stroke:#181818;stroke-width:0.5;" width="4" x="118.4436" y="177.48"/><text fill="#000000" font-family="sans-serif" font-size="14" lengthAdjust="spacing" textLength="78.8936" x="36.55" y="200.0152">Notification</text></g><!--entity E7--><g class="entity" data-entity="E7" data-source-line="10" data-uid="ent0010" id="entity_E7"><rect fill="#F1F1F1" height="46.4883" rx="2.5" ry="2.5" style="stroke:#181818;stroke-width:0.5;" width="85.0283" x="517.49" y="166.48"/><rect fill="#F1F1F1" height="10" style="stroke:#181818;stroke-width:0.5;" width="15" x="582.5183" y="171.48"/><rect fill="#F1F1F1" height="2" style="stroke:#181818;stroke-width:0.5;" width="4" x="580.5183" y="173.48"/><rect fill="#F1F1F1" height="2" style="stroke:#181818;stroke-width:0.5;" width="4" x="580.5183" y="177.48"/><text fill="#000000" font-family="sans-serif" font-size="14" lengthAdjust="spacing" textLength="45.0283" x="532.49" y="200.0152">Report</text></g><!--entity E8--><g class="entity" data-entity="E8" data-source-line="11" data-uid="ent0011" id="entity_E8"><rect fill="#F1F1F1" height="46.4883" rx="2.5" ry="2.5" style="stroke:#181818;stroke-width:0.5;" width="145.8545" x="175.07" y="166.48"/><rect fill="#F1F1F1" height="10" style="stroke:#181818;stroke-width:0.5;" width="15" x="300.9245" y="171.48"/><rect fill="#F1F1F1" height="2" style="stroke:#181818;stroke-width:0.5;" width="4" x="298.9245" y="173.48"/><rect fill="#F1F1F1" height="2" style="stroke:#181818;stroke-width:0.5;" width="4" x="298.9245" y="177.48"/><text fill="#000000" font-family="sans-serif" font-size="14" lengthAdjust="spacing" textLength="105.8545" x="190.07" y="200.0152">ReportCategory</text></g><!--entity E9--><g class="entity" data-entity="E9" data-source-line="12" data-uid="ent0012" id="entity_E9"><rect fill="#F1F1F1" height="46.4883" rx="2.5" ry="2.5" style="stroke:#181818;stroke-width:0.5;" width="126.5977" x="355.7" y="166.48"/><rect fill="#F1F1F1" height="10" style="stroke:#181818;stroke-width:0.5;" width="15" x="462.2977" y="171.48"/><rect fill="#F1F1F1" height="2" style="stroke:#181818;stroke-width:0.5;" width="4" x="460.2977" y="173.48"/><rect fill="#F1F1F1" height="2" style="stroke:#181818;stroke-width:0.5;" width="4" x="460.2977" y="177.48"/><text fill="#000000" font-family="sans-serif" font-size="14" lengthAdjust="spacing" textLength="86.5977" x="370.7" y="200.0152">ReportStatus</text></g><!--entity E10--><g class="entity" data-entity="E10" data-source-line="13" data-uid="ent0013" id="entity_E10"><rect fill="#F1F1F1" height="46.4883" rx="2.5" ry="2.5" style="stroke:#181818;stroke-width:0.5;" width="70.3652" x="835.82" y="166.48"/><rect fill="#F1F1F1" height="10" style="stroke:#181818;stroke-width:0.5;" width="15" x="886.1852" y="171.48"/><rect fill="#F1F1F1" height="2" style="stroke:#181818;stroke-width:0.5;" width="4" x="884.1852" y="173.48"/><rect fill="#F1F1F1" height="2" style="stroke:#181818;stroke-width:0.5;" width="4" x="884.1852" y="177.48"/><text fill="#000000" font-family="sans-serif" font-size="14" lengthAdjust="spacing" textLength="30.3652" x="850.82" y="200.0152">User</text></g><!--entity E11--><g class="entity" data-entity="E11" data-source-line="14" data-uid="ent0014" id="entity_E11"><rect fill="#F1F1F1" height="46.4883" rx="2.5" ry="2.5" style="stroke:#181818;stroke-width:0.5;" width="83.9277" x="677.04" y="289.97"/><rect fill="#F1F1F1" height="10" style="stroke:#181818;stroke-width:0.5;" width="15" x="740.9677" y="294.97"/><rect fill="#F1F1F1" height="2" style="stroke:#181818;stroke-width:0.5;" width="4" x="738.9677" y="296.97"/><rect fill="#F1F1F1" height="2" style="stroke:#181818;stroke-width:0.5;" width="4" x="738.9677" y="300.97"/><text fill="#000000" font-family="sans-serif" font-size="14" lengthAdjust="spacing" textLength="43.9277" x="692.04" y="323.5052">JpaUtil</text></g><!--entity E12--><g class="entity" data-entity="E12" data-source-line="15" data-uid="ent0015" id="entity_E12"><rect fill="#F1F1F1" height="46.4883" rx="2.5" ry="2.5" style="stroke:#181818;stroke-width:0.5;" width="163.6143" x="637.19" y="166.48"/><rect fill="#F1F1F1" height="10" style="stroke:#181818;stroke-width:0.5;" width="15" x="780.8043" y="171.48"/><rect fill="#F1F1F1" height="2" style="stroke:#181818;stroke-width:0.5;" width="4" x="778.8043" y="173.48"/><rect fill="#F1F1F1" height="2" style="stroke:#181818;stroke-width:0.5;" width="4" x="778.8043" y="177.48"/><text fill="#000000" font-family="sans-serif" font-size="14" lengthAdjust="spacing" textLength="123.6143" x="652.19" y="200.0152">PersistenceService</text></g><!--entity E13--><g class="entity" data-entity="E13" data-source-line="16" data-uid="ent0016" id="entity_E13"><rect fill="#F1F1F1" height="46.4883" rx="2.5" ry="2.5" style="stroke:#181818;stroke-width:0.5;" width="132.3604" x="514.82" y="41"/><rect fill="#F1F1F1" height="10" style="stroke:#181818;stroke-width:0.5;" width="15" x="627.1804" y="46"/><rect fill="#F1F1F1" height="2" style="stroke:#181818;stroke-width:0.5;" width="4" x="625.1804" y="48"/><rect fill="#F1F1F1" height="2" style="stroke:#181818;stroke-width:0.5;" width="4" x="625.1804" y="52"/><text fill="#000000" font-family="sans-serif" font-size="14" lengthAdjust="spacing" textLength="92.3604" x="529.82" y="74.5352">ReportService</text></g><!--entity E14--><g class="entity" data-entity="E14" data-source-line="17" data-uid="ent0017" id="entity_E14"><rect fill="#F1F1F1" height="46.4883" rx="2.5" ry="2.5" style="stroke:#181818;stroke-width:0.5;" width="117.6973" x="726.15" y="41"/><rect fill="#F1F1F1" height="10" style="stroke:#181818;stroke-width:0.5;" width="15" x="823.8473" y="46"/><rect fill="#F1F1F1" height="2" style="stroke:#181818;stroke-width:0.5;" width="4" x="821.8473" y="48"/><rect fill="#F1F1F1" height="2" style="stroke:#181818;stroke-width:0.5;" width="4" x="821.8473" y="52"/><text fill="#000000" font-family="sans-serif" font-size="14" lengthAdjust="spacing" textLength="77.6973" x="741.15" y="74.5352">UserService</text></g><!--link E12 to E11--><g class="link" data-entity-1="E12" data-entity-2="E11" data-source-line="19" data-uid="lnk18" id="link_E12_E11"><path d="M719,213.29 C719,235.12 719,261.99 719,283.77" fill="none" id="E12-to-E11" style="stroke:#181818;stroke-width:1;"/><polygon fill="#181818" points="719,289.77,723,280.77,719,284.77,715,280.77,719,289.77" style="stroke:#181818;stroke-width:1;"/><text fill="#000000" font-family="sans-serif" font-size="13" lengthAdjust="spacing" textLength="72.6616" x="720" y="256.5384">getInstance</text></g><!--link E13 to E12--><g class="link" data-entity-1="E13" data-entity-2="E12" data-source-line="20" data-uid="lnk19" id="link_E13_E12"><path d="M554.12,87.93 C540.3,102.38 528.53,121.18 540,136.48 C546.35,144.95 587.093,156.9296 631.123,168.0596" fill="none" id="E13-to-E12" style="stroke:#181818;stroke-width:1;"/><polygon fill="#181818" points="636.94,169.53,629.1948,163.4463,632.0925,168.3046,627.2342,171.2024,636.94,169.53" style="stroke:#181818;stroke-width:1;"/><text fill="#000000" font-family="sans-serif" font-size="13" lengthAdjust="spacing" textLength="115.7813" x="541" y="133.0484">persistenceService</text></g><!--link E13 to E7--><g class="link" data-entity-1="E13" data-entity-2="E7" data-source-line="21" data-uid="lnk20" id="link_E13_E7"><path d="M547.25,87.87 C532.44,96.71 514.48,106.01 497,111.48 C480.58,116.62 431.52,106.71 420,119.48 C414.94,125.1 415.69,130.28 420,136.48 C420.19,136.75 470.5759,155.5096 511.6859,170.7896" fill="none" id="E13-to-E7" style="stroke:#181818;stroke-width:1;"/><polygon fill="#181818" points="517.31,172.88,510.2675,165.995,512.6233,171.138,507.4803,173.4938,517.31,172.88" style="stroke:#181818;stroke-width:1;"/><text fill="#000000" font-family="sans-serif" font-size="13" lengthAdjust="spacing" textLength="50.9844" x="421" y="133.0484">findById</text></g><!--link E14 to E12--><g class="link" data-entity-1="E14" data-entity-2="E12" data-source-line="22" data-uid="lnk21" id="link_E14_E12"><path d="M725.83,78.58 C704.13,86.64 681.77,99.41 669,119.48 C658.81,135.5 666.8155,148.8351 681.8655,162.1451" fill="none" id="E14-to-E12" style="stroke:#181818;stroke-width:1;"/><polygon fill="#181818" points="686.36,166.12,682.2682,157.1614,682.6146,162.8076,676.9684,163.154,686.36,166.12" style="stroke:#181818;stroke-width:1;"/><text fill="#000000" font-family="sans-serif" font-size="13" lengthAdjust="spacing" textLength="115.7813" x="670" y="133.0484">persistenceService</text></g><!--link E14 to E10--><g class="link" data-entity-1="E14" data-entity-2="E10" data-source-line="23" data-uid="lnk22" id="link_E14_E10"><path d="M800.77,87.89 C816.29,110.17 836.4098,139.0672 851.8998,161.2972" fill="none" id="E14-to-E10" style="stroke:#181818;stroke-width:1;"/><polygon fill="#181818" points="855.33,166.22,853.4665,156.549,852.4715,162.1177,846.9028,161.1227,855.33,166.22" style="stroke:#181818;stroke-width:1;"/><text fill="#000000" font-family="sans-serif" font-size="13" lengthAdjust="spacing" textLength="75.5942" x="834.15" y="133.0484">findByFields</text></g><!--SRC=[XP1DJm8n48Rl_8e9TnBOHL4F7a1CCFWH2IVZOUmEcucRjkaC9cZyxxPiSI4UFFPvvdqdKu_c7Mk2_Wqglg4GB757eGzVFO2N6Ij_adq559YFzYHGHLOP6sbfqVlk-KF9T2jiIGIMhcO3Q2kOns5bajoui4h1OlFWbDg2Ck6bCwZiygPnGlTRouOzDe-U0geBhJjBBgPvmyUHyuIVoRkWBPXqO8PAjGkxLbnqOgMestp7PS9heRncD4plEuzhvIQZ_GSyKH0M9MjeHU63JJvZL1prdeZoq7oAn_7ZOWe6W-lK3LTGaowiACRgQCfiYcZydwNTm2Jw3TjgkbjKaOx_Ynq6Xh-vMwQcaXy0]--></g></svg>