<?xml version="1.0" encoding="UTF-8" standalone="no"?>
<!DOCTYPE svg PUBLIC "-//W3C//DTD SVG 1.1//EN"
 "http://www.w3.org/Graphics/SVG/1.1/DTD/svg11.dtd">
<!-- Generated by graphviz version 14.0.0 (20250921.2048)
 -->
<!-- Title: current_architecture Pages: 1 -->
<svg width="2293pt" height="326pt"
 viewBox="0.00 0.00 2293.00 326.00" xmlns="http://www.w3.org/2000/svg" xmlns:xlink="http://www.w3.org/1999/xlink">
<g id="graph0" class="graph" transform="scale(1 1) rotate(0) translate(25.2 301.2)">
<title>current_architecture</title>
<polygon fill="white" stroke="none" points="-25.2,25.2 -25.2,-301.2 2268.25,-301.2 2268.25,25.2 -25.2,25.2"/>
<text xml:space="preserve" text-anchor="start" x="1020.65" y="-257.8" font-family="Helvetica,sans-Serif" font-weight="bold" font-size="16.00">Task2View current version</text>
<text xml:space="preserve" text-anchor="start" x="928.03" y="-246.55" font-family="Helvetica,sans-Serif" font-size="11.00" fill="#475569">ISO/IEC/IEEE 42010 · Views and Beyond catalogs · filesystem graph (ADR&#45;004)</text>
<g id="clust1" class="cluster">
<title>cluster_in</title>
<path fill="white" stroke="#334155" d="M20,-105C20,-105 107.4,-105 107.4,-105 113.4,-105 119.4,-111 119.4,-117 119.4,-117 119.4,-221 119.4,-221 119.4,-227 113.4,-233 107.4,-233 107.4,-233 20,-233 20,-233 14,-233 8,-227 8,-221 8,-221 8,-117 8,-117 8,-111 14,-105 20,-105"/>
<text xml:space="preserve" text-anchor="middle" x="63.7" y="-218.55" font-family="Helvetica,sans-Serif" font-size="11.00">inputs</text>
</g>
<!-- code -->
<g id="node1" class="node">
<title>code</title>
<path fill="#e2e8f0" stroke="#475569" stroke-width="1.3" d="M89.27,-205C89.27,-205 38.12,-205 38.12,-205 32.12,-205 26.12,-199 26.12,-193 26.12,-193 26.12,-181 26.12,-181 26.12,-175 32.12,-169 38.12,-169 38.12,-169 89.27,-169 89.27,-169 95.27,-169 101.27,-175 101.27,-181 101.27,-181 101.27,-193 101.27,-193 101.27,-199 95.27,-205 89.27,-205"/>
<text xml:space="preserve" text-anchor="start" x="53.2" y="-187.5" font-family="Helvetica,sans-Serif" font-size="10.00">code</text>
<text xml:space="preserve" text-anchor="start" x="33.32" y="-179.4" font-family="Helvetica,sans-Serif" font-size="8.00">&#45;&#45;code repository</text>
</g>
<!-- p0 -->
<g id="node4" class="node">
<title>p0</title>
<path fill="#ffedd5" stroke="#ea580c" stroke-width="1.3" d="M645.62,-191C645.62,-191 595.97,-191 595.97,-191 589.97,-191 583.97,-185 583.97,-179 583.97,-179 583.97,-167 583.97,-167 583.97,-161 589.97,-155 595.97,-155 595.97,-155 645.62,-155 645.62,-155 651.62,-155 657.62,-161 657.62,-167 657.62,-167 657.62,-179 657.62,-179 657.62,-185 651.62,-191 645.62,-191"/>
<text xml:space="preserve" text-anchor="start" x="605.05" y="-173.5" font-family="Helvetica,sans-Serif" font-size="10.00">0 clean</text>
<text xml:space="preserve" text-anchor="start" x="591.17" y="-165.4" font-family="Helvetica,sans-Serif" font-size="8.00">keep source files</text>
</g>
<!-- code&#45;&gt;p0 -->
<g id="edge1" class="edge">
<title>code&#45;&gt;p0</title>
<path fill="none" stroke="#64748b" d="M101.55,-186.07C199.98,-183.59 468.78,-176.81 575.39,-174.12"/>
<polygon fill="#64748b" stroke="#64748b" points="575.24,-176.57 582.17,-173.95 575.11,-171.68 575.24,-176.57"/>
</g>
<!-- goal -->
<g id="node2" class="node">
<title>goal</title>
<path fill="#e2e8f0" stroke="#475569" stroke-width="1.3" d="M99.4,-149C99.4,-149 28,-149 28,-149 22,-149 16,-143 16,-137 16,-137 16,-125 16,-125 16,-119 22,-113 28,-113 28,-113 99.4,-113 99.4,-113 105.4,-113 111.4,-119 111.4,-125 111.4,-125 111.4,-137 111.4,-137 111.4,-143 105.4,-149 99.4,-149"/>
<text xml:space="preserve" text-anchor="start" x="54.7" y="-131.5" font-family="Helvetica,sans-Serif" font-size="10.00">goal</text>
<text xml:space="preserve" text-anchor="start" x="23.2" y="-123.4" font-family="Helvetica,sans-Serif" font-size="8.00">&#45;&#45;goal stakeholder task</text>
</g>
<!-- p1 -->
<g id="node6" class="node">
<title>p1</title>
<path fill="#dbeafe" stroke="#2563eb" stroke-width="1.3" d="M218.05,-151C218.05,-151 154.9,-151 154.9,-151 148.9,-151 142.9,-145 142.9,-139 142.9,-139 142.9,-127 142.9,-127 142.9,-121 148.9,-115 154.9,-115 154.9,-115 218.05,-115 218.05,-115 224.05,-115 230.05,-121 230.05,-127 230.05,-127 230.05,-139 230.05,-139 230.05,-145 224.05,-151 218.05,-151"/>
<text xml:space="preserve" text-anchor="start" x="151.22" y="-133.5" font-family="Helvetica,sans-Serif" font-size="10.00">1 interpret agent</text>
<text xml:space="preserve" text-anchor="start" x="150.1" y="-125.4" font-family="Helvetica,sans-Serif" font-size="8.00">Gemini · catalog role</text>
</g>
<!-- goal&#45;&gt;p1 -->
<g id="edge4" class="edge">
<title>goal&#45;&gt;p1</title>
<path fill="none" stroke="#64748b" d="M111.74,-131.78C118.98,-131.9 126.48,-132.02 133.81,-132.14"/>
<polygon fill="#64748b" stroke="#64748b" points="133.76,-134.59 140.8,-132.26 133.84,-129.69 133.76,-134.59"/>
</g>
<!-- kb -->
<g id="node3" class="node">
<title>kb</title>
<path fill="#fef9c3" stroke="#ca8a04" stroke-width="1.3" d="M112.9,-72.48C112.9,-74.87 90.85,-76.81 63.7,-76.81 36.55,-76.81 14.5,-74.87 14.5,-72.48 14.5,-72.48 14.5,-33.52 14.5,-33.52 14.5,-31.13 36.55,-29.18 63.7,-29.18 90.85,-29.18 112.9,-31.13 112.9,-33.52 112.9,-33.52 112.9,-72.48 112.9,-72.48"/>
<path fill="none" stroke="#ca8a04" stroke-width="1.3" d="M112.9,-72.48C112.9,-70.1 90.85,-68.16 63.7,-68.16 36.55,-68.16 14.5,-70.1 14.5,-72.48"/>
<text xml:space="preserve" text-anchor="start" x="31.45" y="-57.5" font-family="Helvetica,sans-Serif" font-size="10.00">YAML catalogs</text>
<text xml:space="preserve" text-anchor="start" x="21.7" y="-49.4" font-family="Helvetica,sans-Serif" font-size="8.00">stakeholders · concerns</text>
<text xml:space="preserve" text-anchor="start" x="25.82" y="-41.4" font-family="Helvetica,sans-Serif" font-size="8.00">viewpoints · notations</text>
</g>
<!-- kb&#45;&gt;p1 -->
<g id="edge5" class="edge">
<title>kb&#45;&gt;p1</title>
<path fill="none" stroke="#64748b" stroke-dasharray="5,2" d="M100.28,-76.57C116.09,-87.04 134.65,-99.33 150.4,-109.76"/>
<polygon fill="#64748b" stroke="#64748b" points="148.97,-111.75 156.15,-113.58 151.67,-107.67 148.97,-111.75"/>
</g>
<!-- p2 -->
<g id="node8" class="node">
<title>p2</title>
<path fill="#dbeafe" stroke="#2563eb" stroke-width="1.3" d="M510.85,-109C510.85,-109 443.2,-109 443.2,-109 437.2,-109 431.2,-103 431.2,-97 431.2,-97 431.2,-85 431.2,-85 431.2,-79 437.2,-73 443.2,-73 443.2,-73 510.85,-73 510.85,-73 516.85,-73 522.85,-79 522.85,-85 522.85,-85 522.85,-97 522.85,-97 522.85,-103 516.85,-109 510.85,-109"/>
<text xml:space="preserve" text-anchor="start" x="438.4" y="-91.5" font-family="Helvetica,sans-Serif" font-size="10.00">2 questions agent</text>
<text xml:space="preserve" text-anchor="start" x="453.77" y="-83.4" font-family="Helvetica,sans-Serif" font-size="8.00">Gemini · AQs</text>
</g>
<!-- kb&#45;&gt;p2 -->
<g id="edge6" class="edge">
<title>kb&#45;&gt;p2</title>
<path fill="none" stroke="#64748b" stroke-dasharray="5,2" d="M113.5,-57.51C191.17,-64.68 342.31,-78.65 422.72,-86.08"/>
<polygon fill="#64748b" stroke="#64748b" points="422.04,-88.47 429.24,-86.68 422.5,-83.59 422.04,-88.47"/>
</g>
<!-- p3 -->
<g id="node10" class="node">
<title>p3</title>
<path fill="#dbeafe" stroke="#2563eb" stroke-width="1.3" d="M804.03,-88C804.03,-88 737.12,-88 737.12,-88 731.12,-88 725.12,-82 725.12,-76 725.12,-76 725.12,-64 725.12,-64 725.12,-58 731.12,-52 737.12,-52 737.12,-52 804.03,-52 804.03,-52 810.03,-52 816.03,-58 816.03,-64 816.03,-64 816.03,-76 816.03,-76 816.03,-82 810.03,-88 804.03,-88"/>
<text xml:space="preserve" text-anchor="start" x="732.33" y="-74.5" font-family="Helvetica,sans-Serif" font-size="10.00">3 viewpoint agent</text>
<text xml:space="preserve" text-anchor="start" x="745.45" y="-66.4" font-family="Helvetica,sans-Serif" font-size="8.00">catalog id only</text>
<text xml:space="preserve" text-anchor="start" x="739.08" y="-58.4" font-family="Helvetica,sans-Serif" font-size="8.00">choose_language</text>
</g>
<!-- kb&#45;&gt;p3 -->
<g id="edge7" class="edge">
<title>kb&#45;&gt;p3</title>
<path fill="none" stroke="#64748b" stroke-dasharray="5,2" d="M113.5,-49.76C166.64,-46.51 254.13,-42 329.62,-42 2243.05,-68 2243.05,-68 478.02,-42 561.63,-42 658.1,-53.55 716.43,-61.81"/>
<polygon fill="#64748b" stroke="#64748b" points="715.98,-64.22 723.25,-62.79 716.67,-59.37 715.98,-64.22"/>
</g>
<!-- ad -->
<g id="node18" class="node">
<title>ad</title>
<path fill="#ffedd5" stroke="#ea580c" stroke-width="1.3" d="M1733.95,-113C1733.95,-113 1660.3,-113 1660.3,-113 1654.3,-113 1648.3,-107 1648.3,-101 1648.3,-101 1648.3,-89 1648.3,-89 1648.3,-83 1654.3,-77 1660.3,-77 1660.3,-77 1733.95,-77 1733.95,-77 1739.95,-77 1745.95,-83 1745.95,-89 1745.95,-89 1745.95,-101 1745.95,-101 1745.95,-107 1739.95,-113 1733.95,-113"/>
<text xml:space="preserve" text-anchor="start" x="1662.25" y="-95.5" font-family="Helvetica,sans-Serif" font-size="10.00">notation adapter</text>
<text xml:space="preserve" text-anchor="start" x="1655.5" y="-87.4" font-family="Helvetica,sans-Serif" font-size="8.00">goal / viewpoint / matrix</text>
</g>
<!-- kb&#45;&gt;ad -->
<g id="edge27" class="edge">
<title>kb&#45;&gt;ad</title>
<path fill="none" stroke="#64748b" stroke-dasharray="5,2" d="M113.43,-37.24C166.14,-21.62 252.93,0 329.62,0 2243.05,-68 2243.05,-68 1437.95,0 1521.31,0 1611.01,-44.16 1659.66,-72.26"/>
<polygon fill="#64748b" stroke="#64748b" points="1658.24,-74.27 1665.51,-75.69 1660.71,-70.04 1658.24,-74.27"/>
</g>
<!-- a0 -->
<g id="node5" class="node">
<title>a0</title>
<polygon fill="#dcfce7" stroke="#16a34a" stroke-width="1.3" points="816.4,-185 718.75,-185 718.75,-149 822.4,-149 822.4,-179 816.4,-185"/>
<polyline fill="none" stroke="#16a34a" stroke-width="1.3" points="816.4,-185 816.4,-179"/>
<polyline fill="none" stroke="#16a34a" stroke-width="1.3" points="822.4,-179 816.4,-179"/>
<text xml:space="preserve" text-anchor="start" x="725.95" y="-163.12" font-family="Helvetica,sans-Serif" font-size="10.00">cleaned_corpus.json</text>
</g>
<!-- p0&#45;&gt;a0 -->
<g id="edge2" class="edge">
<title>p0&#45;&gt;a0</title>
<path fill="none" stroke="#64748b" d="M657.95,-171.53C673.52,-170.9 692.14,-170.14 709.67,-169.43"/>
<polygon fill="#64748b" stroke="#64748b" points="709.77,-171.88 716.66,-169.15 709.57,-166.98 709.77,-171.88"/>
</g>
<!-- g -->
<g id="node12" class="node">
<title>g</title>
<path fill="#ffedd5" stroke="#ea580c" stroke-width="1.3" d="M942.93,-179C942.93,-179 877.53,-179 877.53,-179 871.53,-179 865.53,-173 865.53,-167 865.53,-167 865.53,-155 865.53,-155 865.53,-149 871.53,-143 877.53,-143 877.53,-143 942.93,-143 942.93,-143 948.93,-143 954.93,-149 954.93,-155 954.93,-155 954.93,-167 954.93,-167 954.93,-173 948.93,-179 942.93,-179"/>
<text xml:space="preserve" text-anchor="start" x="874.23" y="-165.5" font-family="Helvetica,sans-Serif" font-size="10.00">filesystem graph</text>
<text xml:space="preserve" text-anchor="start" x="872.73" y="-157.4" font-family="Helvetica,sans-Serif" font-size="8.00">file nodes · parent dir</text>
<text xml:space="preserve" text-anchor="start" x="873.85" y="-149.4" font-family="Helvetica,sans-Serif" font-size="8.00">import&#45;like uses/calls</text>
</g>
<!-- a0&#45;&gt;g -->
<g id="edge3" class="edge">
<title>a0&#45;&gt;g</title>
<path fill="none" stroke="#64748b" d="M822.83,-164.77C833.92,-164.28 845.65,-163.77 856.78,-163.29"/>
<polygon fill="#64748b" stroke="#64748b" points="856.76,-165.74 863.64,-162.99 856.54,-160.84 856.76,-165.74"/>
</g>
<!-- a1 -->
<g id="node7" class="node">
<title>a1</title>
<polygon fill="#dcfce7" stroke="#16a34a" stroke-width="1.3" points="395.2,-151 260.05,-151 260.05,-115 401.2,-115 401.2,-145 395.2,-151"/>
<polyline fill="none" stroke="#16a34a" stroke-width="1.3" points="395.2,-151 395.2,-145"/>
<polyline fill="none" stroke="#16a34a" stroke-width="1.3" points="401.2,-145 395.2,-145"/>
<text xml:space="preserve" text-anchor="start" x="267.25" y="-129.12" font-family="Helvetica,sans-Serif" font-size="10.00">stakeholder_task_profile.json</text>
</g>
<!-- p1&#45;&gt;a1 -->
<g id="edge8" class="edge">
<title>p1&#45;&gt;a1</title>
<path fill="none" stroke="#64748b" d="M230.51,-133C237.09,-133 244.05,-133 251.11,-133"/>
<polygon fill="#64748b" stroke="#64748b" points="250.91,-135.45 257.91,-133 250.91,-130.55 250.91,-135.45"/>
</g>
<!-- a1&#45;&gt;p2 -->
<g id="edge9" class="edge">
<title>a1&#45;&gt;p2</title>
<path fill="none" stroke="#64748b" d="M395.38,-114.46C404.52,-111.8 413.84,-109.09 422.75,-106.49"/>
<polygon fill="#64748b" stroke="#64748b" points="423.31,-108.88 429.35,-104.58 421.94,-104.18 423.31,-108.88"/>
</g>
<!-- a2 -->
<g id="node9" class="node">
<title>a2</title>
<polygon fill="#dcfce7" stroke="#16a34a" stroke-width="1.3" points="682.75,-109 552.85,-109 552.85,-73 688.75,-73 688.75,-103 682.75,-109"/>
<polyline fill="none" stroke="#16a34a" stroke-width="1.3" points="682.75,-109 682.75,-103"/>
<polyline fill="none" stroke="#16a34a" stroke-width="1.3" points="688.75,-103 682.75,-103"/>
<text xml:space="preserve" text-anchor="start" x="560.05" y="-87.12" font-family="Helvetica,sans-Serif" font-size="10.00">architectural_questions.json</text>
</g>
<!-- p2&#45;&gt;a2 -->
<g id="edge10" class="edge">
<title>p2&#45;&gt;a2</title>
<path fill="none" stroke="#64748b" d="M523.27,-91C529.91,-91 536.9,-91 543.95,-91"/>
<polygon fill="#64748b" stroke="#64748b" points="543.73,-93.45 550.73,-91 543.73,-88.55 543.73,-93.45"/>
</g>
<!-- a2&#45;&gt;p3 -->
<g id="edge11" class="edge">
<title>a2&#45;&gt;p3</title>
<path fill="none" stroke="#64748b" d="M689.2,-81.42C698.32,-80.13 707.56,-78.81 716.38,-77.56"/>
<polygon fill="#64748b" stroke="#64748b" points="716.6,-80 723.19,-76.59 715.91,-75.15 716.6,-80"/>
</g>
<!-- a3 -->
<g id="node11" class="node">
<title>a3</title>
<polygon fill="#dcfce7" stroke="#16a34a" stroke-width="1.3" points="962.05,-88 852.4,-88 852.4,-52 968.05,-52 968.05,-82 962.05,-88"/>
<polyline fill="none" stroke="#16a34a" stroke-width="1.3" points="962.05,-88 962.05,-82"/>
<polyline fill="none" stroke="#16a34a" stroke-width="1.3" points="968.05,-82 962.05,-82"/>
<text xml:space="preserve" text-anchor="start" x="867.48" y="-71.75" font-family="Helvetica,sans-Serif" font-size="10.00">viewpoint_plan.json</text>
<text xml:space="preserve" text-anchor="start" x="859.6" y="-60.5" font-family="Helvetica,sans-Serif" font-size="10.00">view_specification.json</text>
</g>
<!-- p3&#45;&gt;a3 -->
<g id="edge12" class="edge">
<title>p3&#45;&gt;a3</title>
<path fill="none" stroke="#64748b" d="M816.65,-70C825.29,-70 834.51,-70 843.64,-70"/>
<polygon fill="#64748b" stroke="#64748b" points="843.48,-72.45 850.48,-70 843.48,-67.55 843.48,-72.45"/>
</g>
<!-- sc -->
<g id="node13" class="node">
<title>sc</title>
<path fill="#e0e7ff" stroke="#4f46e5" stroke-width="1.3" d="M1069.45,-88C1069.45,-88 1010.05,-88 1010.05,-88 1004.05,-88 998.05,-82 998.05,-76 998.05,-76 998.05,-64 998.05,-64 998.05,-58 1004.05,-52 1010.05,-52 1010.05,-52 1069.45,-52 1069.45,-52 1075.45,-52 1081.45,-58 1081.45,-64 1081.45,-64 1081.45,-76 1081.45,-76 1081.45,-82 1075.45,-88 1069.45,-88"/>
<text xml:space="preserve" text-anchor="start" x="1005.25" y="-74.5" font-family="Helvetica,sans-Serif" font-size="10.00">4 scoper plug&#45;in</text>
<text xml:space="preserve" text-anchor="start" x="1008.63" y="-66.4" font-family="Helvetica,sans-Serif" font-size="8.00">composite default</text>
<text xml:space="preserve" text-anchor="start" x="1008.63" y="-58.4" font-family="Helvetica,sans-Serif" font-size="8.00">YAML / CLI swap</text>
</g>
<!-- a3&#45;&gt;sc -->
<g id="edge13" class="edge">
<title>a3&#45;&gt;sc</title>
<path fill="none" stroke="#64748b" d="M968.65,-70C975.53,-70 982.5,-70 989.26,-70"/>
<polygon fill="#64748b" stroke="#64748b" points="989.15,-72.45 996.15,-70 989.15,-67.55 989.15,-72.45"/>
</g>
<!-- g&#45;&gt;sc -->
<g id="edge14" class="edge">
<title>g&#45;&gt;sc</title>
<path fill="none" stroke="#64748b" d="M937.34,-142.37C957.2,-128.2 984.64,-108.61 1005.98,-93.39"/>
<polygon fill="#64748b" stroke="#64748b" points="1007.16,-95.55 1011.44,-89.49 1004.32,-91.56 1007.16,-95.55"/>
</g>
<!-- ex -->
<g id="node15" class="node">
<title>ex</title>
<path fill="#e0e7ff" stroke="#4f46e5" stroke-width="1.3" d="M1340.5,-88C1340.5,-88 1263.1,-88 1263.1,-88 1257.1,-88 1251.1,-82 1251.1,-76 1251.1,-76 1251.1,-64 1251.1,-64 1251.1,-58 1257.1,-52 1263.1,-52 1263.1,-52 1340.5,-52 1340.5,-52 1346.5,-52 1352.5,-58 1352.5,-64 1352.5,-64 1352.5,-76 1352.5,-76 1352.5,-82 1346.5,-88 1340.5,-88"/>
<text xml:space="preserve" text-anchor="start" x="1262.8" y="-74.5" font-family="Helvetica,sans-Serif" font-size="10.00">5 extractor plug&#45;in</text>
<text xml:space="preserve" text-anchor="start" x="1258.3" y="-66.4" font-family="Helvetica,sans-Serif" font-size="8.00">gemini / archagent / ciao</text>
<text xml:space="preserve" text-anchor="start" x="1277.05" y="-58.4" font-family="Helvetica,sans-Serif" font-size="8.00">→ ViewModel</text>
</g>
<!-- g&#45;&gt;ex -->
<g id="edge17" class="edge">
<title>g&#45;&gt;ex</title>
<path fill="none" stroke="#64748b" stroke-dasharray="5,2" d="M955.55,-153.96C1016.11,-143.9 1127.83,-123.73 1221.1,-98 1228.37,-95.99 1235.93,-93.67 1243.38,-91.22"/>
<polygon fill="#64748b" stroke="#64748b" points="1244.1,-93.57 1249.96,-89.02 1242.54,-88.92 1244.1,-93.57"/>
</g>
<!-- facts -->
<g id="node16" class="node">
<title>facts</title>
<path fill="#ffedd5" stroke="#ea580c" stroke-width="1.3" d="M1479.4,-113C1479.4,-113 1394.5,-113 1394.5,-113 1388.5,-113 1382.5,-107 1382.5,-101 1382.5,-101 1382.5,-89 1382.5,-89 1382.5,-83 1388.5,-77 1394.5,-77 1394.5,-77 1479.4,-77 1479.4,-77 1485.4,-77 1491.4,-83 1491.4,-89 1491.4,-89 1491.4,-101 1491.4,-101 1491.4,-107 1485.4,-113 1479.4,-113"/>
<text xml:space="preserve" text-anchor="start" x="1411.83" y="-99.5" font-family="Helvetica,sans-Serif" font-size="10.00">apply_facts</text>
<text xml:space="preserve" text-anchor="start" x="1389.7" y="-91.4" font-family="Helvetica,sans-Serif" font-size="8.00">evidence · complete edges</text>
<text xml:space="preserve" text-anchor="start" x="1408.08" y="-83.4" font-family="Helvetica,sans-Serif" font-size="8.00">directory groups</text>
</g>
<!-- g&#45;&gt;facts -->
<g id="edge25" class="edge">
<title>g&#45;&gt;facts</title>
<path fill="none" stroke="#64748b" stroke-dasharray="5,2" d="M955.51,-155.43C1048.94,-143.68 1266.44,-116.32 1373.77,-102.82"/>
<polygon fill="#64748b" stroke="#64748b" points="1373.79,-105.29 1380.43,-101.98 1373.18,-100.43 1373.79,-105.29"/>
</g>
<!-- gate -->
<g id="node19" class="node">
<title>gate</title>
<path fill="#ffedd5" stroke="#ea580c" stroke-width="1.3" d="M1859.35,-155C1859.35,-155 1787.95,-155 1787.95,-155 1781.95,-155 1775.95,-149 1775.95,-143 1775.95,-143 1775.95,-131 1775.95,-131 1775.95,-125 1781.95,-119 1787.95,-119 1787.95,-119 1859.35,-119 1859.35,-119 1865.35,-119 1871.35,-125 1871.35,-131 1871.35,-131 1871.35,-143 1871.35,-143 1871.35,-149 1865.35,-155 1859.35,-155"/>
<text xml:space="preserve" text-anchor="start" x="1814.28" y="-141.5" font-family="Helvetica,sans-Serif" font-size="10.00">gate</text>
<text xml:space="preserve" text-anchor="start" x="1794.78" y="-133.4" font-family="Helvetica,sans-Serif" font-size="8.00">unresolved drop</text>
<text xml:space="preserve" text-anchor="start" x="1783.15" y="-125.4" font-family="Helvetica,sans-Serif" font-size="8.00">declared concern gaps</text>
</g>
<!-- g&#45;&gt;gate -->
<g id="edge26" class="edge">
<title>g&#45;&gt;gate</title>
<path fill="none" stroke="#64748b" stroke-dasharray="5,2" d="M955.38,-172.81C1005.76,-185.23 1090.84,-203 1165.28,-203 2243.05,-68 2243.05,-68 1570.85,-203 1642.27,-203 1721.48,-177.84 1771.64,-158.59"/>
<polygon fill="#64748b" stroke="#64748b" points="1772.39,-160.93 1778.02,-156.11 1770.61,-156.37 1772.39,-160.93"/>
</g>
<!-- a4 -->
<g id="node14" class="node">
<title>a4</title>
<polygon fill="#dcfce7" stroke="#16a34a" stroke-width="1.3" points="1215.1,-88 1111.45,-88 1111.45,-52 1221.1,-52 1221.1,-82 1215.1,-88"/>
<polyline fill="none" stroke="#16a34a" stroke-width="1.3" points="1215.1,-88 1215.1,-82"/>
<polyline fill="none" stroke="#16a34a" stroke-width="1.3" points="1221.1,-82 1215.1,-82"/>
<text xml:space="preserve" text-anchor="start" x="1118.65" y="-66.12" font-family="Helvetica,sans-Serif" font-size="10.00">repository_scope.json</text>
</g>
<!-- sc&#45;&gt;a4 -->
<g id="edge15" class="edge">
<title>sc&#45;&gt;a4</title>
<path fill="none" stroke="#64748b" d="M1081.87,-70C1088.59,-70 1095.68,-70 1102.78,-70"/>
<polygon fill="#64748b" stroke="#64748b" points="1102.58,-72.45 1109.58,-70 1102.58,-67.55 1102.58,-72.45"/>
</g>
<!-- a4&#45;&gt;ex -->
<g id="edge16" class="edge">
<title>a4&#45;&gt;ex</title>
<path fill="none" stroke="#64748b" d="M1221.58,-70C1228.54,-70 1235.68,-70 1242.69,-70"/>
<polygon fill="#64748b" stroke="#64748b" points="1242.33,-72.45 1249.33,-70 1242.33,-67.55 1242.33,-72.45"/>
</g>
<!-- ex&#45;&gt;facts -->
<g id="edge18" class="edge">
<title>ex&#45;&gt;facts</title>
<path fill="none" stroke="#64748b" d="M1353.14,-79.45C1359.91,-80.72 1366.93,-82.04 1373.88,-83.35"/>
<polygon fill="#64748b" stroke="#64748b" points="1373.17,-85.7 1380.5,-84.59 1374.07,-80.89 1373.17,-85.7"/>
</g>
<!-- cr -->
<g id="node17" class="node">
<title>cr</title>
<path fill="#dbeafe" stroke="#2563eb" stroke-width="1.3" d="M1606.3,-113C1606.3,-113 1533.4,-113 1533.4,-113 1527.4,-113 1521.4,-107 1521.4,-101 1521.4,-101 1521.4,-89 1521.4,-89 1521.4,-83 1527.4,-77 1533.4,-77 1533.4,-77 1606.3,-77 1606.3,-77 1612.3,-77 1618.3,-83 1618.3,-89 1618.3,-89 1618.3,-101 1618.3,-101 1618.3,-107 1612.3,-113 1606.3,-113"/>
<text xml:space="preserve" text-anchor="start" x="1537.98" y="-95.5" font-family="Helvetica,sans-Serif" font-size="10.00">critic (optional)</text>
<text xml:space="preserve" text-anchor="start" x="1528.6" y="-87.4" font-family="Helvetica,sans-Serif" font-size="8.00">one agent · graph tools</text>
</g>
<!-- facts&#45;&gt;cr -->
<g id="edge19" class="edge">
<title>facts&#45;&gt;cr</title>
<path fill="none" stroke="#64748b" d="M1491.95,-95C1498.68,-95 1505.58,-95 1512.35,-95"/>
<polygon fill="#64748b" stroke="#64748b" points="1512.33,-97.45 1519.33,-95 1512.33,-92.55 1512.33,-97.45"/>
</g>
<!-- cr&#45;&gt;ad -->
<g id="edge20" class="edge">
<title>cr&#45;&gt;ad</title>
<path fill="none" stroke="#64748b" d="M1618.93,-95C1625.77,-95 1632.86,-95 1639.84,-95"/>
<polygon fill="#64748b" stroke="#64748b" points="1639.46,-97.45 1646.46,-95 1639.46,-92.55 1639.46,-97.45"/>
</g>
<!-- ad&#45;&gt;gate -->
<g id="edge21" class="edge">
<title>ad&#45;&gt;gate</title>
<path fill="none" stroke="#64748b" d="M1746.27,-111.24C1753.31,-113.61 1760.6,-116.07 1767.76,-118.48"/>
<polygon fill="#64748b" stroke="#64748b" points="1766.6,-120.68 1774.02,-120.6 1768.17,-116.04 1766.6,-120.68"/>
</g>
<!-- a8 -->
<g id="node20" class="node">
<title>a8</title>
<polygon fill="#dcfce7" stroke="#16a34a" stroke-width="1.3" points="2002,-158.19 1901.35,-158.19 1901.35,-115.81 2008,-115.81 2008,-152.19 2002,-158.19"/>
<polyline fill="none" stroke="#16a34a" stroke-width="1.3" points="2002,-158.19 2002,-152.19"/>
<polyline fill="none" stroke="#16a34a" stroke-width="1.3" points="2008,-152.19 2002,-152.19"/>
<text xml:space="preserve" text-anchor="start" x="1918.3" y="-144.38" font-family="Helvetica,sans-Serif" font-size="10.00">view_model.json</text>
<text xml:space="preserve" text-anchor="start" x="1913.8" y="-133.12" font-family="Helvetica,sans-Serif" font-size="10.00">architecture_view.*</text>
<text xml:space="preserve" text-anchor="start" x="1908.55" y="-121.88" font-family="Helvetica,sans-Serif" font-size="10.00">validation_report.json</text>
</g>
<!-- gate&#45;&gt;a8 -->
<g id="edge22" class="edge">
<title>gate&#45;&gt;a8</title>
<path fill="none" stroke="#64748b" d="M1871.96,-137C1878.68,-137 1885.67,-137 1892.61,-137"/>
<polygon fill="#64748b" stroke="#64748b" points="1892.19,-139.45 1899.19,-137 1892.19,-134.55 1892.19,-139.45"/>
</g>
<!-- c -->
<g id="node21" class="node">
<title>c</title>
<path fill="#ffedd5" stroke="#ea580c" stroke-width="1.3" d="M2110.15,-155C2110.15,-155 2050,-155 2050,-155 2044,-155 2038,-149 2038,-143 2038,-143 2038,-131 2038,-131 2038,-125 2044,-119 2050,-119 2050,-119 2110.15,-119 2110.15,-119 2116.15,-119 2122.15,-125 2122.15,-131 2122.15,-131 2122.15,-143 2122.15,-143 2122.15,-149 2116.15,-155 2110.15,-155"/>
<text xml:space="preserve" text-anchor="start" x="2063.2" y="-137.5" font-family="Helvetica,sans-Serif" font-size="10.00">compile</text>
<text xml:space="preserve" text-anchor="start" x="2045.2" y="-129.4" font-family="Helvetica,sans-Serif" font-size="8.00">Kroki · svg/png/jpeg</text>
</g>
<!-- a8&#45;&gt;c -->
<g id="edge23" class="edge">
<title>a8&#45;&gt;c</title>
<path fill="none" stroke="#64748b" d="M2008.37,-137C2015.18,-137 2022.15,-137 2028.92,-137"/>
<polygon fill="#64748b" stroke="#64748b" points="2028.86,-139.45 2035.86,-137 2028.86,-134.55 2028.86,-139.45"/>
</g>
<!-- out -->
<g id="node22" class="node">
<title>out</title>
<polygon fill="#dcfce7" stroke="#16a34a" stroke-width="1.3" points="2237.05,-155 2152.15,-155 2152.15,-119 2243.05,-119 2243.05,-149 2237.05,-155"/>
<polyline fill="none" stroke="#16a34a" stroke-width="1.3" points="2237.05,-155 2237.05,-149"/>
<polyline fill="none" stroke="#16a34a" stroke-width="1.3" points="2243.05,-149 2237.05,-149"/>
<text xml:space="preserve" text-anchor="start" x="2159.35" y="-138.75" font-family="Helvetica,sans-Serif" font-size="10.00">architecture_view</text>
<text xml:space="preserve" text-anchor="start" x="2165.35" y="-127.5" font-family="Helvetica,sans-Serif" font-size="10.00">.svg .png .jpeg</text>
</g>
<!-- c&#45;&gt;out -->
<g id="edge24" class="edge">
<title>c&#45;&gt;out</title>
<path fill="none" stroke="#64748b" d="M2122.78,-137C2129.56,-137 2136.67,-137 2143.67,-137"/>
<polygon fill="#64748b" stroke="#64748b" points="2143.32,-139.45 2150.32,-137 2143.32,-134.55 2143.32,-139.45"/>
</g>
</g>
</svg>
