<svg xmlns="http://www.w3.org/2000/svg" xmlns:xlink="http://www.w3.org/1999/xlink" contentStyleType="text/css" data-diagram-type="DESCRIPTION" height="960px" preserveAspectRatio="none" style="width:1362px;height:960px;background:#FFFFFF;" version="1.1" viewBox="0 0 1362 960" width="1362px" zoomAndPan="magnify"><defs/><g><!--entity E1--><g class="entity" data-entity="E1" data-source-line="1" data-uid="ent0002" id="entity_E1"><rect fill="#F1F1F1" height="46.4883" rx="2.5" ry="2.5" style="stroke:#181818;stroke-width:0.5;" width="87.5303" x="796.9" y="651.93"/><rect fill="#F1F1F1" height="10" style="stroke:#181818;stroke-width:0.5;" width="15" x="864.4303" y="656.93"/><rect fill="#F1F1F1" height="2" style="stroke:#181818;stroke-width:0.5;" width="4" x="862.4303" y="658.93"/><rect fill="#F1F1F1" height="2" style="stroke:#181818;stroke-width:0.5;" width="4" x="862.4303" y="662.93"/><text fill="#000000" font-family="sans-serif" font-size="14" lengthAdjust="spacing" textLength="47.5303" x="811.9" y="685.4652">Citizen</text></g><!--entity E2--><g class="entity" data-entity="E2" data-source-line="2" data-uid="ent0003" id="entity_E2"><rect fill="#F1F1F1" height="46.4883" rx="2.5" ry="2.5" style="stroke:#181818;stroke-width:0.5;" width="116.7129" x="291.31" y="907.39"/><rect fill="#F1F1F1" height="10" style="stroke:#181818;stroke-width:0.5;" width="15" x="388.0229" y="912.39"/><rect fill="#F1F1F1" height="2" style="stroke:#181818;stroke-width:0.5;" width="4" x="386.0229" y="914.39"/><rect fill="#F1F1F1" height="2" style="stroke:#181818;stroke-width:0.5;" width="4" x="386.0229" y="918.39"/><text fill="#000000" font-family="sans-serif" font-size="14" lengthAdjust="spacing" textLength="76.7129" x="306.31" y="940.9252">Credentials</text></g><!--entity E3--><g class="entity" data-entity="E3" data-source-line="3" data-uid="ent0004" id="entity_E3"><rect fill="#F1F1F1" height="46.4883" rx="2.5" ry="2.5" style="stroke:#181818;stroke-width:0.5;" width="123.9316" x="889.7" y="436.95"/><rect fill="#F1F1F1" height="10" style="stroke:#181818;stroke-width:0.5;" width="15" x="993.6316" y="441.95"/><rect fill="#F1F1F1" height="2" style="stroke:#181818;stroke-width:0.5;" width="4" x="991.6316" y="443.95"/><rect fill="#F1F1F1" height="2" style="stroke:#181818;stroke-width:0.5;" width="4" x="991.6316" y="447.95"/><text fill="#000000" font-family="sans-serif" font-size="14" lengthAdjust="spacing" textLength="83.9316" x="904.7" y="470.4852">InternalNote</text></g><!--entity E4--><g class="entity" data-entity="E4" data-source-line="4" data-uid="ent0005" id="entity_E4"><rect fill="#F1F1F1" height="46.4883" rx="2.5" ry="2.5" style="stroke:#181818;stroke-width:0.5;" width="192.0928" x="705.62" y="221.97"/><rect fill="#F1F1F1" height="10" style="stroke:#181818;stroke-width:0.5;" width="15" x="877.7128" y="226.97"/><rect fill="#F1F1F1" height="2" style="stroke:#181818;stroke-width:0.5;" width="4" x="875.7128" y="228.97"/><rect fill="#F1F1F1" height="2" style="stroke:#181818;stroke-width:0.5;" width="4" x="875.7128" y="232.97"/><text fill="#000000" font-family="sans-serif" font-size="14" lengthAdjust="spacing" textLength="152.0928" x="720.62" y="255.5052">InternalNoteController</text></g><!--entity E5--><g class="entity" data-entity="E5" data-source-line="5" data-uid="ent0006" id="entity_E5"><rect fill="#F1F1F1" height="46.4883" rx="2.5" ry="2.5" style="stroke:#181818;stroke-width:0.5;" width="147.7822" x="1205.78" y="7"/><rect fill="#F1F1F1" height="10" style="stroke:#181818;stroke-width:0.5;" width="15" x="1333.5622" y="12"/><rect fill="#F1F1F1" height="2" style="stroke:#181818;stroke-width:0.5;" width="4" x="1331.5622" y="14"/><rect fill="#F1F1F1" height="2" style="stroke:#181818;stroke-width:0.5;" width="4" x="1331.5622" y="18"/><text fill="#000000" font-family="sans-serif" font-size="14" lengthAdjust="spacing" textLength="107.7822" x="1220.78" y="40.5352">InternalNoteGUI</text></g><!--entity E6--><g class="entity" data-entity="E6" data-source-line="6" data-uid="ent0007" id="entity_E6"><rect fill="#F1F1F1" height="46.4883" rx="2.5" ry="2.5" style="stroke:#181818;stroke-width:0.5;" width="97.5381" x="919.9" y="651.93"/><rect fill="#F1F1F1" height="10" style="stroke:#181818;stroke-width:0.5;" width="15" x="997.4381" y="656.93"/><rect fill="#F1F1F1" height="2" style="stroke:#181818;stroke-width:0.5;" width="4" x="995.4381" y="658.93"/><rect fill="#F1F1F1" height="2" style="stroke:#181818;stroke-width:0.5;" width="4" x="995.4381" y="662.93"/><text fill="#000000" font-family="sans-serif" font-size="14" lengthAdjust="spacing" textLength="57.5381" x="934.9" y="685.4652">Location</text></g><!--entity E7--><g class="entity" data-entity="E7" data-source-line="7" data-uid="ent0008" id="entity_E7"><rect fill="#F1F1F1" height="46.4883" rx="2.5" ry="2.5" style="stroke:#181818;stroke-width:0.5;" width="165.8018" x="524.77" y="651.93"/><rect fill="#F1F1F1" height="10" style="stroke:#181818;stroke-width:0.5;" width="15" x="670.5718" y="656.93"/><rect fill="#F1F1F1" height="2" style="stroke:#181818;stroke-width:0.5;" width="4" x="668.5718" y="658.93"/><rect fill="#F1F1F1" height="2" style="stroke:#181818;stroke-width:0.5;" width="4" x="668.5718" y="662.93"/><text fill="#000000" font-family="sans-serif" font-size="14" lengthAdjust="spacing" textLength="125.8018" x="539.77" y="685.4652">MunicipalOperator</text></g><!--entity E8--><g class="entity" data-entity="E8" data-source-line="8" data-uid="ent0009" id="entity_E8"><rect fill="#F1F1F1" height="46.4883" rx="2.5" ry="2.5" style="stroke:#181818;stroke-width:0.5;" width="163.6143" x="112.86" y="651.93"/><rect fill="#F1F1F1" height="10" style="stroke:#181818;stroke-width:0.5;" width="15" x="256.4743" y="656.93"/><rect fill="#F1F1F1" height="2" style="stroke:#181818;stroke-width:0.5;" width="4" x="254.4743" y="658.93"/><rect fill="#F1F1F1" height="2" style="stroke:#181818;stroke-width:0.5;" width="4" x="254.4743" y="662.93"/><text fill="#000000" font-family="sans-serif" font-size="14" lengthAdjust="spacing" textLength="123.6143" x="127.86" y="685.4652">PersistenceService</text></g><!--entity E9--><g class="entity" data-entity="E9" data-source-line="9" data-uid="ent0010" id="entity_E9"><rect fill="#F1F1F1" height="46.4883" rx="2.5" ry="2.5" style="stroke:#181818;stroke-width:0.5;" width="85.0283" x="999.16" y="544.44"/><rect fill="#F1F1F1" height="10" style="stroke:#181818;stroke-width:0.5;" width="15" x="1064.1883" y="549.44"/><rect fill="#F1F1F1" height="2" style="stroke:#181818;stroke-width:0.5;" width="4" x="1062.1883" y="551.44"/><rect fill="#F1F1F1" height="2" style="stroke:#181818;stroke-width:0.5;" width="4" x="1062.1883" y="555.44"/><text fill="#000000" font-family="sans-serif" font-size="14" lengthAdjust="spacing" textLength="45.0283" x="1014.16" y="577.9752">Report</text></g><!--entity E10--><g class="entity" data-entity="E10" data-source-line="10" data-uid="ent0011" id="entity_E10"><rect fill="#F1F1F1" height="46.4883" rx="2.5" ry="2.5" style="stroke:#181818;stroke-width:0.5;" width="132.3604" x="735.49" y="329.46"/><rect fill="#F1F1F1" height="10" style="stroke:#181818;stroke-width:0.5;" width="15" x="847.8504" y="334.46"/><rect fill="#F1F1F1" height="2" style="stroke:#181818;stroke-width:0.5;" width="4" x="845.8504" y="336.46"/><rect fill="#F1F1F1" height="2" style="stroke:#181818;stroke-width:0.5;" width="4" x="845.8504" y="340.46"/><text fill="#000000" font-family="sans-serif" font-size="14" lengthAdjust="spacing" textLength="92.3604" x="750.49" y="362.9952">ReportService</text></g><!--entity E11--><g class="entity" data-entity="E11" data-source-line="11" data-uid="ent0012" id="entity_E11"><rect fill="#F1F1F1" height="46.4883" rx="2.5" ry="2.5" style="stroke:#181818;stroke-width:0.5;" width="126.5977" x="1230.37" y="787.66"/><rect fill="#F1F1F1" height="10" style="stroke:#181818;stroke-width:0.5;" width="15" x="1336.9677" y="792.66"/><rect fill="#F1F1F1" height="2" style="stroke:#181818;stroke-width:0.5;" width="4" x="1334.9677" y="794.66"/><rect fill="#F1F1F1" height="2" style="stroke:#181818;stroke-width:0.5;" width="4" x="1334.9677" y="798.66"/><text fill="#000000" font-family="sans-serif" font-size="14" lengthAdjust="spacing" textLength="86.5977" x="1245.37" y="821.1952">ReportStatus</text></g><!--entity E12--><g class="entity" data-entity="E12" data-source-line="12" data-uid="ent0013" id="entity_E12"><rect fill="#F1F1F1" height="46.4883" rx="2.5" ry="2.5" style="stroke:#181818;stroke-width:0.5;" width="100.293" x="1052.52" y="651.93"/><rect fill="#F1F1F1" height="10" style="stroke:#181818;stroke-width:0.5;" width="15" x="1132.813" y="656.93"/><rect fill="#F1F1F1" height="2" style="stroke:#181818;stroke-width:0.5;" width="4" x="1130.813" y="658.93"/><rect fill="#F1F1F1" height="2" style="stroke:#181818;stroke-width:0.5;" width="4" x="1130.813" y="662.93"/><text fill="#000000" font-family="sans-serif" font-size="14" lengthAdjust="spacing" textLength="60.293" x="1067.52" y="685.4652">Resolved</text></g><!--entity E13--><g class="entity" data-entity="E13" data-source-line="13" data-uid="ent0014" id="entity_E13"><rect fill="#F1F1F1" height="46.4883" rx="2.5" ry="2.5" style="stroke:#181818;stroke-width:0.5;" width="210.7275" x="874.31" y="114.49"/><rect fill="#F1F1F1" height="10" style="stroke:#181818;stroke-width:0.5;" width="15" x="1065.0375" y="119.49"/><rect fill="#F1F1F1" height="2" style="stroke:#181818;stroke-width:0.5;" width="4" x="1063.0375" y="121.49"/><rect fill="#F1F1F1" height="2" style="stroke:#181818;stroke-width:0.5;" width="4" x="1063.0375" y="125.49"/><text fill="#000000" font-family="sans-serif" font-size="14" lengthAdjust="spacing" textLength="170.7275" x="889.31" y="148.0252">SystemServicesController</text></g><!--entity E14--><g class="entity" data-entity="E14" data-source-line="14" data-uid="ent0015" id="entity_E14"><rect fill="#F1F1F1" height="46.4883" rx="2.5" ry="2.5" style="stroke:#181818;stroke-width:0.5;" width="70.3652" x="572.49" y="787.66"/><rect fill="#F1F1F1" height="10" style="stroke:#181818;stroke-width:0.5;" width="15" x="622.8552" y="792.66"/><rect fill="#F1F1F1" height="2" style="stroke:#181818;stroke-width:0.5;" width="4" x="620.8552" y="794.66"/><rect fill="#F1F1F1" height="2" style="stroke:#181818;stroke-width:0.5;" width="4" x="620.8552" y="798.66"/><text fill="#000000" font-family="sans-serif" font-size="14" lengthAdjust="spacing" textLength="30.3652" x="587.49" y="821.1952">User</text></g><!--entity E15--><g class="entity" data-entity="E15" data-source-line="15" data-uid="ent0016" id="entity_E15"><rect fill="#F1F1F1" height="46.4883" rx="2.5" ry="2.5" style="stroke:#181818;stroke-width:0.5;" width="117.6973" x="446.82" y="544.44"/><rect fill="#F1F1F1" height="10" style="stroke:#181818;stroke-width:0.5;" width="15" x="544.5173" y="549.44"/><rect fill="#F1F1F1" height="2" style="stroke:#181818;stroke-width:0.5;" width="4" x="542.5173" y="551.44"/><rect fill="#F1F1F1" height="2" style="stroke:#181818;stroke-width:0.5;" width="4" x="542.5173" y="555.44"/><text fill="#000000" font-family="sans-serif" font-size="14" lengthAdjust="spacing" textLength="77.6973" x="461.82" y="577.9752">UserService</text></g><!--entity E16--><g class="entity" data-entity="E16" data-source-line="16" data-uid="ent0017" id="entity_E16"><path d="M13.71,662.43 C13.71,652.43 45.6739,652.43 45.6739,652.43 C45.6739,652.43 77.6377,652.43 77.6377,662.43 L77.6377,687.9183 C77.6377,697.9183 45.6739,697.9183 45.6739,697.9183 C45.6739,697.9183 13.71,697.9183 13.71,687.9183 L13.71,662.43" fill="#F1F1F1" style="stroke:#181818;stroke-width:0.5;"/><path d="M13.71,662.43 C13.71,672.43 45.6739,672.43 45.6739,672.43 C45.6739,672.43 77.6377,672.43 77.6377,662.43" fill="none" style="stroke:#181818;stroke-width:0.5;"/><text fill="#000000" font-family="sans-serif" font-size="14" lengthAdjust="spacing" textLength="43.9277" x="23.71" y="689.9652">JpaUtil</text></g><!--entity E17--><g class="entity" data-entity="E17" data-source-line="17" data-uid="ent0018" id="entity_E17"><rect fill="#F1F1F1" height="70.9766" rx="2.5" ry="2.5" style="stroke:#181818;stroke-width:0.5;" width="227.3389" x="7" y="775.42"/><rect fill="#F1F1F1" height="10" style="stroke:#181818;stroke-width:0.5;" width="15" x="214.3389" y="780.42"/><rect fill="#F1F1F1" height="2" style="stroke:#181818;stroke-width:0.5;" width="4" x="212.3389" y="782.42"/><rect fill="#F1F1F1" height="2" style="stroke:#181818;stroke-width:0.5;" width="4" x="212.3389" y="786.42"/><text fill="#000000" font-family="sans-serif" font-size="14" lengthAdjust="spacing" textLength="187.3389" x="22" y="808.9552">ExecutionEnvironmentNode</text><line style="stroke:#181818;stroke-width:1;" x1="8" x2="233.3389" y1="811.9083" y2="811.9083"/><text fill="#000000" font-family="sans-serif" font-size="14" lengthAdjust="spacing" textLength="156.6387" x="22" y="829.4434">execution environment</text></g><!--link E16 to E17--><g class="link" data-entity-1="E16" data-entity-2="E17" data-source-line="22" data-uid="lnk19" id="link_E16_E17"><path d="M53.48,698.28 C58.74,712.17 66.24,730.27 74.67,745.42 C80.22,755.39 83.5359,760.7781 90.1759,770.1281" fill="none" id="E16-to-E17" style="stroke:#181818;stroke-width:1;"/><polygon fill="#181818" points="93.65,775.02,91.7002,765.3661,90.755,770.9434,85.1776,769.9981,93.65,775.02" style="stroke:#181818;stroke-width:1;"/><text fill="#000000" font-family="sans-serif" font-size="13" lengthAdjust="spacing" textLength="73.7725" x="75.67" y="741.9884">deployedTo</text></g><!--link E8 to E17--><g class="link" data-entity-1="E8" data-entity-2="E17" data-source-line="23" data-uid="lnk20" id="link_E8_E17"><path d="M182.12,698.86 C170.57,719.72 156.1863,745.7308 142.8763,769.7708" fill="none" id="E8-to-E17" style="stroke:#181818;stroke-width:1;"/><polygon fill="#181818" points="139.97,775.02,147.8288,769.0838,142.3919,770.6457,140.8299,765.2088,139.97,775.02" style="stroke:#181818;stroke-width:1;"/><text fill="#000000" font-family="sans-serif" font-size="13" lengthAdjust="spacing" textLength="73.7725" x="165.3" y="741.9884">deployedTo</text></g><!--link E1 to E14--><g class="link" data-entity-1="E1" data-entity-2="E14" data-source-line="24" data-uid="lnk21" id="link_E1_E14"><path d="M821.73,698.82 C808.4,713.64 789.45,732.57 769.67,745.42 C729.55,771.46 682.9938,788.1853 648.8238,798.5053" fill="none" id="E1-to-E14" style="stroke:#181818;stroke-width:1;"/><polygon fill="#181818" points="643.08,800.24,652.8521,801.4671,647.8665,798.7944,650.5392,793.8087,643.08,800.24" style="stroke:#181818;stroke-width:1;"/></g><!--link E3 to E7--><g class="link" data-entity-1="E3" data-entity-2="E7" data-source-line="25" data-uid="lnk22" id="link_E3_E7"><path d="M915.18,483.78 C849.13,524.68 715.5615,607.3717 649.4015,648.3317" fill="none" id="E3-to-E7" style="stroke:#181818;stroke-width:1;"/><polygon fill="#181818" points="644.3,651.49,654.0577,650.1535,648.5512,648.858,649.8466,643.3515,644.3,651.49" style="stroke:#181818;stroke-width:1;"/></g><!--link E3 to E9--><g class="link" data-entity-1="E3" data-entity-2="E9" data-source-line="26" data-uid="lnk23" id="link_E3_E9"><path d="M959.98,483.82 C972.33,501.62 989.1102,522.0847 1007.1302,539.8747" fill="none" id="E3-to-E9" style="stroke:#181818;stroke-width:1;"/><polygon fill="#181818" points="1011.4,544.09,1007.8055,534.9205,1007.8418,540.5772,1002.1851,540.6136,1011.4,544.09" style="stroke:#181818;stroke-width:1;"/></g><!--link E9 to E3--><g class="link" data-entity-1="E9" data-entity-2="E3" data-source-line="34" data-uid="lnk31" id="link_E9_E3"><path d="M1033.39,544.09 C1021.05,526.3 1004.2686,505.8365 986.2486,488.0365" fill="none" id="E9-to-E3" style="stroke:#181818;stroke-width:1;"/><polygon fill="#181818" points="981.98,483.82,985.5719,492.9905,985.5372,487.3338,991.1939,487.299,981.98,483.82" style="stroke:#181818;stroke-width:1;"/></g><!--link E4 to E10--><g class="link" data-entity-1="E4" data-entity-2="E10" data-source-line="27" data-uid="lnk24" id="link_E4_E10"><path d="M801.67,268.85 C801.67,286.65 801.67,305.32 801.67,323.11" fill="none" id="E4-to-E10" style="stroke:#181818;stroke-width:1;"/><polygon fill="#181818" points="801.67,329.11,805.67,320.11,801.67,324.11,797.67,320.11,801.67,329.11" style="stroke:#181818;stroke-width:1;"/></g><!--link E4 to E15--><g class="link" data-entity-1="E4" data-entity-2="E15" data-source-line="28" data-uid="lnk25" id="link_E4_E15"><path d="M778.21,268.9 C761.2,285.48 737.76,308.62 717.67,329.46 C643.87,406.01 565.0874,497.0081 528.6074,539.7081" fill="none" id="E4-to-E15" style="stroke:#181818;stroke-width:1;"/><polygon fill="#181818" points="524.71,544.27,533.5973,540.0254,527.9578,540.4684,527.5148,534.829,524.71,544.27" style="stroke:#181818;stroke-width:1;"/></g><!--link E5 to E9--><g class="link" data-entity-1="E5" data-entity-2="E9" data-source-line="29" data-uid="lnk26" id="link_E5_E9"><path d="M1279.67,53.88 C1279.67,75.24 1279.67,108.16 1279.67,136.73 C323.67,953.88 323.67,953.88 1279.67,461.19 C1279.67,545.6 1159.0133,562.7066 1090.4833,565.9466" fill="none" id="E5-to-E9" style="stroke:#181818;stroke-width:1;"/><polygon fill="#181818" points="1084.49,566.23,1093.6689,569.8005,1089.4844,565.9939,1093.2911,561.8094,1084.49,566.23" style="stroke:#181818;stroke-width:1;"/></g><!--link E5 to E13--><g class="link" data-entity-1="E5" data-entity-2="E13" data-source-line="30" data-uid="lnk27" id="link_E5_E13"><path d="M1215.31,53.87 C1164.78,71.64 1100.41,94.2689 1049.84,112.0589" fill="none" id="E5-to-E13" style="stroke:#181818;stroke-width:1;"/><polygon fill="#181818" points="1044.18,114.05,1053.9974,114.8366,1048.8967,112.3907,1051.3426,107.29,1044.18,114.05" style="stroke:#181818;stroke-width:1;"/></g><!--link E5 to E14--><g class="link" data-entity-1="E5" data-entity-2="E14" data-source-line="31" data-uid="lnk28" id="link_E5_E14"><path d="M1306.51,53.88 C1326.62,73.5 1350.67,103.84 1350.67,136.73 C323.67,953.88 323.67,953.88 1350.67,568.68 C1350.67,719.39 796.6248,789.5812 648.9748,805.6412" fill="none" id="E5-to-E14" style="stroke:#181818;stroke-width:1;"/><polygon fill="#181818" points="643.01,806.29,652.3898,809.2933,647.9807,805.7493,651.5247,801.3403,643.01,806.29" style="stroke:#181818;stroke-width:1;"/></g><!--link E7 to E14--><g class="link" data-entity-1="E7" data-entity-2="E14" data-source-line="32" data-uid="lnk29" id="link_E7_E14"><path d="M607.67,698.86 C607.67,723.6 607.67,756.94 607.67,781.55" fill="none" id="E7-to-E14" style="stroke:#181818;stroke-width:1;"/><polygon fill="#181818" points="607.67,787.55,611.67,778.55,607.67,782.55,603.67,778.55,607.67,787.55" style="stroke:#181818;stroke-width:1;"/></g><!--link E9 to E1--><g class="link" data-entity-1="E9" data-entity-2="E1" data-source-line="33" data-uid="lnk30" id="link_E9_E1"><path d="M999.04,591.05 C965.16,608.83 923.2825,630.8111 889.2425,648.6811" fill="none" id="E9-to-E1" style="stroke:#181818;stroke-width:1;"/><polygon fill="#181818" points="883.93,651.47,893.7579,650.8283,888.357,649.1459,890.0394,643.745,883.93,651.47" style="stroke:#181818;stroke-width:1;"/></g><!--link E9 to E6--><g class="link" data-entity-1="E9" data-entity-2="E6" data-source-line="35" data-uid="lnk32" id="link_E9_E6"><path d="M1026.01,591.31 C1013.69,609.11 1000.0241,628.856 987.7141,646.646" fill="none" id="E9-to-E6" style="stroke:#181818;stroke-width:1;"/><polygon fill="#181818" points="984.3,651.58,992.7105,646.4551,987.1451,647.4684,986.1319,641.903,984.3,651.58" style="stroke:#181818;stroke-width:1;"/></g><!--link E9 to E7--><g class="link" data-entity-1="E9" data-entity-2="E7" data-source-line="36" data-uid="lnk33" id="link_E9_E7"><path d="M998.87,579.09 C927.44,596.45 788.5602,630.2028 696.5702,652.5628" fill="none" id="E9-to-E7" style="stroke:#181818;stroke-width:1;"/><polygon fill="#181818" points="690.74,653.98,700.4301,655.7411,695.5985,652.799,698.5406,647.9674,690.74,653.98" style="stroke:#181818;stroke-width:1;"/></g><!--link E9 to E11--><g class="link" data-entity-1="E9" data-entity-2="E11" data-source-line="37" data-uid="lnk34" id="link_E9_E11"><path d="M1069.24,591.29 C1093.22,606.46 1127.02,627.99 1153.17,651.93 C1199.2,694.05 1237.318,750.1531 1264.318,782.6831" fill="none" id="E9-to-E11" style="stroke:#181818;stroke-width:1;"/><polygon fill="#181818" points="1268.15,787.3,1265.4799,777.82,1264.9566,783.4526,1259.324,782.9294,1268.15,787.3" style="stroke:#181818;stroke-width:1;"/></g><!--link E11 to E9--><g class="link" data-entity-1="E11" data-entity-2="E9" data-source-line="47" data-uid="lnk44" id="link_E11_E9"><path d="M1291.08,787.3 C1276.15,754.77 1234.2,694.05 1188.17,651.93 C1157.4,623.76 1121.4538,601.5066 1089.9538,586.4566" fill="none" id="E11-to-E9" style="stroke:#181818;stroke-width:1;"/><polygon fill="#181818" points="1084.54,583.87,1090.9363,591.3591,1089.0515,586.0255,1094.3851,584.1407,1084.54,583.87" style="stroke:#181818;stroke-width:1;"/></g><!--link E9 to E12--><g class="link" data-entity-1="E9" data-entity-2="E12" data-source-line="38" data-uid="lnk35" id="link_E9_E12"><path d="M1043.76,591.31 C1051.21,609.11 1061.9288,628.9612 1075.0488,646.7512" fill="none" id="E9-to-E12" style="stroke:#181818;stroke-width:1;"/><polygon fill="#181818" points="1078.61,651.58,1076.4874,641.9626,1075.6423,647.556,1070.0489,646.7109,1078.61,651.58" style="stroke:#181818;stroke-width:1;"/></g><!--link E12 to E9--><g class="link" data-entity-1="E12" data-entity-2="E9" data-source-line="48" data-uid="lnk45" id="link_E12_E9"><path d="M1100.6,651.58 C1093.15,633.79 1082.4399,613.9398 1069.3199,596.1398" fill="none" id="E12-to-E9" style="stroke:#181818;stroke-width:1;"/><polygon fill="#181818" points="1065.76,591.31,1067.88,600.928,1068.7266,595.3348,1074.3198,596.1814,1065.76,591.31" style="stroke:#181818;stroke-width:1;"/></g><!--link E10 to E1--><g class="link" data-entity-1="E10" data-entity-2="E1" data-source-line="39" data-uid="lnk36" id="link_E10_E1"><path d="M802.64,376.26 C803.89,402.18 806.43,445.97 810.67,483.44 C817.58,544.56 828.9252,610.157 835.4052,645.747" fill="none" id="E10-to-E1" style="stroke:#181818;stroke-width:1;"/><polygon fill="#181818" points="836.48,651.65,838.8031,642.0791,835.5844,646.7309,830.9325,643.5121,836.48,651.65" style="stroke:#181818;stroke-width:1;"/></g><!--link E10 to E3--><g class="link" data-entity-1="E10" data-entity-2="E3" data-source-line="40" data-uid="lnk37" id="link_E10_E3"><path d="M833.85,376.34 C859.16,394.13 889.3426,415.3579 914.6326,433.1479" fill="none" id="E10-to-E3" style="stroke:#181818;stroke-width:1;"/><polygon fill="#181818" points="919.54,436.6,914.4802,428.1502,915.4505,433.7233,909.8774,434.6935,919.54,436.6" style="stroke:#181818;stroke-width:1;"/></g><!--link E10 to E6--><g class="link" data-entity-1="E10" data-entity-2="E6" data-source-line="41" data-uid="lnk38" id="link_E10_E6"><path d="M813.41,376.24 C844.08,435.08 923.517,587.5292 954.167,646.3392" fill="none" id="E10-to-E6" style="stroke:#181818;stroke-width:1;"/><polygon fill="#181818" points="956.94,651.66,956.3276,641.8302,954.6292,647.226,949.2333,645.5276,956.94,651.66" style="stroke:#181818;stroke-width:1;"/></g><!--link E10 to E7--><g class="link" data-entity-1="E10" data-entity-2="E7" data-source-line="42" data-uid="lnk39" id="link_E10_E7"><path d="M735.16,366.18 C711.08,373.86 685.65,386.2 668.67,405.95 C606.41,478.38 603.9606,595.3548 605.9706,645.6848" fill="none" id="E10-to-E7" style="stroke:#181818;stroke-width:1;"/><polygon fill="#181818" points="606.21,651.68,609.8477,642.5276,606.0105,646.684,601.854,642.8468,606.21,651.68" style="stroke:#181818;stroke-width:1;"/></g><!--link E10 to E8--><g class="link" data-entity-1="E10" data-entity-2="E8" data-source-line="43" data-uid="lnk40" id="link_E10_E8"><path d="M735.09,375.79 C711.26,384.36 684.42,394.81 660.67,405.95 C492.91,484.63 310.1806,599.3054 234.2906,648.3054" fill="none" id="E10-to-E8" style="stroke:#181818;stroke-width:1;"/><polygon fill="#181818" points="229.25,651.56,238.9806,650.0385,233.4505,648.8479,234.6412,643.3177,229.25,651.56" style="stroke:#181818;stroke-width:1;"/></g><!--link E10 to E9--><g class="link" data-entity-1="E10" data-entity-2="E9" data-source-line="44" data-uid="lnk41" id="link_E10_E9"><path d="M868.27,359.36 C920.87,367.57 991.68,387.7 1030.67,436.95 C1054.94,467.61 1052.4429,510.1661 1047.6129,538.3661" fill="none" id="E10-to-E9" style="stroke:#181818;stroke-width:1;"/><polygon fill="#181818" points="1046.6,544.28,1052.062,536.0844,1047.4441,539.3518,1044.1768,534.7339,1046.6,544.28" style="stroke:#181818;stroke-width:1;"/></g><!--link E10 to E12--><g class="link" data-entity-1="E10" data-entity-2="E12" data-source-line="45" data-uid="lnk42" id="link_E10_E12"><path d="M868.17,353.95 C930.62,358.18 1020.92,375.46 1065.67,436.95 C1115.53,505.46 1108.01,536.54 1115.67,620.93 C1116.6,631.16 1116.1575,636.4941 1113.3375,645.8741" fill="none" id="E10-to-E12" style="stroke:#181818;stroke-width:1;"/><polygon fill="#181818" points="1111.61,651.62,1118.0318,644.1527,1113.0495,646.8317,1110.3706,641.8494,1111.61,651.62" style="stroke:#181818;stroke-width:1;"/></g><!--link E10 to E14--><g class="link" data-entity-1="E10" data-entity-2="E14" data-source-line="46" data-uid="lnk43" id="link_E10_E14"><path d="M799.15,376.42 C792.06,433.62 768.34,587.01 707.67,698.42 C688.64,733.35 661.0514,762.2831 638.3814,783.1831" fill="none" id="E10-to-E14" style="stroke:#181818;stroke-width:1;"/><polygon fill="#181818" points="633.97,787.25,643.2983,784.0905,637.6461,783.8609,637.8757,778.2087,633.97,787.25" style="stroke:#181818;stroke-width:1;"/></g><!--link E12 to E11--><g class="link" data-entity-1="E12" data-entity-2="E11" data-source-line="49" data-uid="lnk46" id="link_E12_E11"><path d="M1135.07,698.86 C1170.3,723.52 1221.3447,759.2691 1256.5147,783.8891" fill="none" id="E12-to-E11" style="stroke:#181818;stroke-width:1;"/><polygon fill="#181818" points="1261.43,787.33,1256.3509,778.8918,1257.3339,784.4626,1251.7631,785.4456,1261.43,787.33" style="stroke:#181818;stroke-width:1;"/></g><!--link E13 to E4--><g class="link" data-entity-1="E13" data-entity-2="E4" data-source-line="50" data-uid="lnk47" id="link_E13_E4"><path d="M941.48,161.36 C911.45,179.16 874.9717,200.7811 844.9517,218.5711" fill="none" id="E13-to-E4" style="stroke:#181818;stroke-width:1;"/><polygon fill="#181818" points="839.79,221.63,849.5718,220.4829,844.0914,219.0809,845.4933,213.6006,839.79,221.63" style="stroke:#181818;stroke-width:1;"/></g><!--link E13 to E9--><g class="link" data-entity-1="E13" data-entity-2="E9" data-source-line="51" data-uid="lnk48" id="link_E13_E9"><path d="M1085.46,147.67 C1145.46,159.22 1208.67,185.34 1208.67,244.22 C323.67,953.88 323.67,953.88 1208.67,461.19 C1208.67,519.84 1139.9987,545.8182 1090.5187,557.5282" fill="none" id="E13-to-E9" style="stroke:#181818;stroke-width:1;"/><polygon fill="#181818" points="1084.68,558.91,1094.3593,560.7298,1089.5456,557.7585,1092.5169,552.9448,1084.68,558.91" style="stroke:#181818;stroke-width:1;"/></g><!--link E13 to E14--><g class="link" data-entity-1="E13" data-entity-2="E14" data-source-line="52" data-uid="lnk49" id="link_E13_E14"><path d="M873.85,147.02 C704.06,161.75 389.67,195.6 389.67,244.22 C323.67,953.88 323.67,953.88 389.67,568.68 C389.67,676.21 505.1499,754.3575 566.9199,788.8075" fill="none" id="E13-to-E14" style="stroke:#181818;stroke-width:1;"/><polygon fill="#181818" points="572.16,791.73,566.2481,783.8528,567.7932,789.2946,562.3515,790.8397,572.16,791.73" style="stroke:#181818;stroke-width:1;"/></g><!--link E14 to E2--><g class="link" data-entity-1="E14" data-entity-2="E2" data-source-line="53" data-uid="lnk50" id="link_E14_E2"><path d="M572.07,828.15 C527.28,848.59 455.5787,881.3095 404.9487,904.4095" fill="none" id="E14-to-E2" style="stroke:#181818;stroke-width:1;"/><polygon fill="#181818" points="399.49,906.9,409.3384,906.8033,404.0389,904.8246,406.0177,899.5251,399.49,906.9" style="stroke:#181818;stroke-width:1;"/></g><!--link E15 to E1--><g class="link" data-entity-1="E15" data-entity-2="E1" data-source-line="54" data-uid="lnk51" id="link_E15_E1"><path d="M564.79,587.3 C631.1,608.18 731.387,639.7579 790.837,658.4779" fill="none" id="E15-to-E1" style="stroke:#181818;stroke-width:1;"/><polygon fill="#181818" points="796.56,660.28,789.1769,653.7615,791.7909,658.7783,786.7741,661.3922,796.56,660.28" style="stroke:#181818;stroke-width:1;"/></g><!--link E15 to E2--><g class="link" data-entity-1="E15" data-entity-2="E2" data-source-line="55" data-uid="lnk52" id="link_E15_E2"><path d="M495.91,591.26 C467.9,656.08 389.8207,836.7425 361.8007,901.5625" fill="none" id="E15-to-E2" style="stroke:#181818;stroke-width:1;"/><polygon fill="#181818" points="359.42,907.07,366.6627,900.396,361.4039,902.4804,359.3195,897.2217,359.42,907.07" style="stroke:#181818;stroke-width:1;"/></g><!--link E15 to E7--><g class="link" data-entity-1="E15" data-entity-2="E7" data-source-line="56" data-uid="lnk53" id="link_E15_E7"><path d="M527.55,591.31 C544.76,609.11 564.4495,629.4764 581.6495,647.2664" fill="none" id="E15-to-E7" style="stroke:#181818;stroke-width:1;"/><polygon fill="#181818" points="585.82,651.58,582.4399,642.3293,582.3446,647.9854,576.6885,647.89,585.82,651.58" style="stroke:#181818;stroke-width:1;"/></g><!--link E15 to E8--><g class="link" data-entity-1="E15" data-entity-2="E8" data-source-line="57" data-uid="lnk54" id="link_E15_E8"><path d="M446.44,588.77 C393.66,606.68 322.1623,630.9335 267.1823,649.5735" fill="none" id="E15-to-E8" style="stroke:#181818;stroke-width:1;"/><polygon fill="#181818" points="261.5,651.5,271.3078,652.3985,266.2353,649.8946,268.7391,644.8221,261.5,651.5" style="stroke:#181818;stroke-width:1;"/></g><!--link E15 to E14--><g class="link" data-entity-1="E15" data-entity-2="E14" data-source-line="58" data-uid="lnk55" id="link_E15_E14"><path d="M501.4,591.17 C497.36,617.78 493.79,662.97 507.67,698.42 C521.99,734.97 549.6255,763.3193 573.6455,783.5993" fill="none" id="E15-to-E14" style="stroke:#181818;stroke-width:1;"/><polygon fill="#181818" points="578.23,787.47,573.9337,778.6076,574.4096,784.2444,568.7728,784.7203,578.23,787.47" style="stroke:#181818;stroke-width:1;"/></g><!--SRC=[TP1FJmCX4CNlV0hIkqdf_lVWfTcO6gt6sXFnWBjp8A6m0TfOFxtJBeMkZNlPtxnvl87XI-db3-XFAXnj6U5B2preBuLoexOWVAKzM2tKsdWOnMmgBetsrYW5Tcpdq_RZTZNg1U7FfXDUcZ2m9FnbhsKd1w5U1x32cn1H4Vu6raddGNUm0NkGNHXU4_uEWx5-B9jBEJ6nUPIzyFlm6CPEgZFg07rGy7sR8qxPXUFkxsCOFdRhOfMFrNHOGNhXnPTmG6TFWzXwgMPZfoITsGr6uqwngYWdbBRVqErFIsZrGLgZTzXScnwmTOSV_k3Ye90iv9DW7beUpadtj8T1cIFq7uQqzJyw2tfEscp4Ab93sZoqvmaBqXQn7mXt416JgeHDm4XPf39IbNp9Y9l7kV7u1RE4PS8gOPsmkKguJiDxCPOiYniyNOE5BUG9cuJdZB2IKtIHBbhSg5N2-igR_m80]--></g></svg>